<svg xmlns="http://www.w3.org/2000/svg" xmlns:xlink="http://www.w3.org/1999/xlink" width="500" zoomAndPan="magnify" viewBox="0 0 375 374.999991" height="500" preserveAspectRatio="xMidYMid meet" version="1.0"><defs><filter x="0%" y="0%" width="100%" height="100%" id="dfe0dba06b"><feColorMatrix values="0 0 0 0 1 0 0 0 0 1 0 0 0 0 1 0 0 0 1 0" color-interpolation-filters="sRGB"/></filter><g/><mask id="2aa5b51a1d"><g filter="url(#dfe0dba06b)"><rect x="-37.5" width="450" fill="#000000" y="-37.499999" height="449.999989" fill-opacity="0.18"/></g></mask><clipPath id="dd679e915a"><path d="M 73 146 L 78 146 L 78 150.207031 L 73 150.207031 Z M 73 146 " clip-rule="nonzero"/></clipPath><clipPath id="831e556694"><path d="M 62 0.207031 L 89 0.207031 L 89 150.207031 L 62 150.207031 Z M 62 0.207031 " clip-rule="nonzero"/></clipPath><clipPath id="3c61512571"><path d="M 0.5 62 L 150.5 62 L 150.5 89 L 0.5 89 Z M 0.5 62 " clip-rule="nonzero"/></clipPath><clipPath id="5d83c2835a"><rect x="0" width="151" y="0" height="151"/></clipPath><clipPath id="e42ab960e7"><path d="M 181.742188 201.6875 L 282.730469 201.6875 L 282.730469 238.847656 L 181.742188 238.847656 Z M 181.742188 201.6875 " clip-rule="nonzero"/></clipPath><clipPath id="ec62f1ddf6"><path d="M 277 168.753906 L 331.742188 168.753906 L 331.742188 218 L 277 218 Z M 277 168.753906 " clip-rule="nonzero"/></clipPath></defs><rect x="-37.5" width="450" fill="#ffffff" y="-37.499999" height="449.999989" fill-opacity="1"/><rect x="-37.5" width="450" fill="#d76f30" y="-37.499999" height="449.999989" fill-opacity="1"/><g mask="url(#2aa5b51a1d)"><g transform="matrix(1, 0, 0, 1, 112, 107)"><g clip-path="url(#5d83c2835a)"><path fill="#172d13" d="M 44.269531 60.53125 L 44.269531 66.769531 C 44.269531 67.609375 43.582031 68.296875 42.742188 68.296875 L 36.503906 68.296875 C 35.664062 68.296875 34.976562 67.609375 34.976562 66.769531 L 34.976562 60.53125 C 34.976562 59.6875 35.664062 59 36.503906 59 L 42.742188 59 C 43.582031 59 44.269531 59.6875 44.269531 60.53125 Z M 44.269531 60.53125 " fill-opacity="1" fill-rule="evenodd"/><path fill="#172d13" d="M 42.589844 38.351562 L 42.589844 42.347656 C 42.589844 42.882812 42.15625 43.34375 41.597656 43.34375 L 37.597656 43.34375 C 37.0625 43.34375 36.605469 42.910156 36.605469 42.347656 L 36.605469 38.351562 C 36.605469 37.816406 37.039062 37.359375 37.597656 37.359375 L 41.597656 37.359375 C 42.15625 37.359375 42.589844 37.816406 42.589844 38.351562 Z M 42.589844 38.351562 " fill-opacity="1" fill-rule="evenodd"/><path fill="#172d13" d="M 30.851562 28.753906 L 30.851562 31.042969 C 30.851562 31.347656 30.597656 31.605469 30.292969 31.605469 L 28 31.605469 C 27.695312 31.605469 27.4375 31.347656 27.4375 31.042969 L 27.4375 28.753906 C 27.4375 28.445312 27.695312 28.191406 28 28.191406 L 30.292969 28.191406 C 30.597656 28.191406 30.851562 28.445312 30.851562 28.753906 Z M 30.851562 28.753906 " fill-opacity="1" fill-rule="evenodd"/><path fill="#172d13" d="M 54.429688 25.902344 L 54.429688 29.695312 C 54.429688 30.203125 53.996094 30.636719 53.488281 30.636719 L 52.546875 30.636719 L 52.546875 47.007812 L 55.167969 47.007812 C 56.136719 47.007812 56.925781 47.796875 56.925781 48.765625 L 56.925781 55.921875 C 56.925781 56.886719 56.136719 57.679688 55.167969 57.679688 L 48.011719 57.679688 C 47.046875 57.679688 46.257812 56.886719 46.257812 55.921875 L 46.257812 53.296875 L 29.882812 53.296875 L 29.882812 54.242188 C 29.882812 54.75 29.449219 55.183594 28.941406 55.183594 L 25.148438 55.183594 C 24.636719 55.183594 24.207031 54.75 24.207031 54.242188 L 24.207031 50.445312 C 24.207031 49.9375 24.636719 49.503906 25.148438 49.503906 L 28.941406 49.503906 C 29.449219 49.503906 29.882812 49.9375 29.882812 50.445312 L 29.882812 51.386719 L 46.257812 51.386719 L 46.257812 48.765625 C 46.257812 47.796875 47.046875 47.007812 48.011719 47.007812 L 50.636719 47.007812 L 50.636719 30.636719 L 49.695312 30.636719 C 49.183594 30.636719 48.75 30.203125 48.75 29.695312 L 48.75 25.902344 C 48.75 25.390625 49.183594 24.957031 49.695312 24.957031 L 53.488281 24.957031 C 53.996094 24.957031 54.429688 25.367188 54.429688 25.902344 Z M 54.429688 25.902344 " fill-opacity="1" fill-rule="evenodd"/><path fill="#172d13" d="M 81.800781 114.359375 L 81.800781 108.121094 C 81.800781 107.277344 82.488281 106.589844 83.328125 106.589844 L 89.566406 106.589844 C 90.410156 106.589844 91.097656 107.277344 91.097656 108.121094 L 91.097656 114.359375 C 91.097656 115.199219 90.410156 115.886719 89.566406 115.886719 L 83.328125 115.886719 C 82.488281 115.910156 81.800781 115.222656 81.800781 114.359375 Z M 81.800781 114.359375 " fill-opacity="1" fill-rule="evenodd"/><path fill="#172d13" d="M 106.753906 89.914062 L 106.753906 83.675781 C 106.753906 82.835938 107.441406 82.148438 108.28125 82.148438 L 114.519531 82.148438 C 115.363281 82.148438 116.050781 82.835938 116.050781 83.675781 L 116.050781 89.914062 C 116.050781 90.753906 115.363281 91.441406 114.519531 91.441406 L 108.28125 91.441406 C 107.441406 91.441406 106.753906 90.753906 106.753906 89.914062 Z M 106.753906 89.914062 " fill-opacity="1" fill-rule="evenodd"/><path fill="#172d13" d="M 108.410156 112.066406 L 108.410156 108.066406 C 108.410156 107.535156 108.84375 107.074219 109.402344 107.074219 L 113.402344 107.074219 C 113.9375 107.074219 114.394531 107.507812 114.394531 108.066406 L 114.394531 112.066406 C 114.394531 112.601562 113.960938 113.058594 113.402344 113.058594 L 109.402344 113.058594 C 108.84375 113.058594 108.410156 112.625 108.410156 112.066406 Z M 108.410156 112.066406 " fill-opacity="1" fill-rule="evenodd"/><path fill="#172d13" d="M 120.175781 121.691406 L 120.175781 119.398438 C 120.175781 119.09375 120.429688 118.839844 120.734375 118.839844 L 123.027344 118.839844 C 123.332031 118.839844 123.585938 119.09375 123.585938 119.398438 L 123.585938 121.691406 C 123.585938 121.996094 123.332031 122.25 123.027344 122.25 L 120.734375 122.25 C 120.402344 122.25 120.175781 121.996094 120.175781 121.691406 Z M 120.175781 121.691406 " fill-opacity="1" fill-rule="evenodd"/><path fill="#172d13" d="M 96.570312 124.542969 L 96.570312 120.75 C 96.570312 120.238281 97.003906 119.804688 97.511719 119.804688 L 98.453125 119.804688 L 98.453125 103.433594 L 95.832031 103.433594 C 94.863281 103.433594 94.074219 102.644531 94.074219 101.675781 L 94.074219 94.523438 C 94.074219 93.554688 94.863281 92.765625 95.832031 92.765625 L 102.988281 92.765625 C 103.953125 92.765625 104.742188 93.554688 104.742188 94.523438 L 104.742188 97.144531 L 121.117188 97.144531 L 121.117188 96.203125 C 121.117188 95.695312 121.550781 95.261719 122.058594 95.261719 L 125.851562 95.261719 C 126.363281 95.261719 126.792969 95.695312 126.792969 96.203125 L 126.792969 99.996094 C 126.792969 100.507812 126.363281 100.9375 125.851562 100.9375 L 122.058594 100.9375 C 121.550781 100.9375 121.117188 100.507812 121.117188 99.996094 L 121.117188 99.054688 L 104.742188 99.054688 L 104.742188 101.675781 C 104.742188 102.644531 103.953125 103.433594 102.988281 103.433594 L 100.363281 103.433594 L 100.363281 119.804688 L 101.304688 119.804688 C 101.816406 119.804688 102.25 120.238281 102.25 120.75 L 102.25 124.542969 C 102.25 125.050781 101.816406 125.484375 101.304688 125.484375 L 97.511719 125.484375 C 97.003906 125.484375 96.570312 125.050781 96.570312 124.542969 Z M 96.570312 124.542969 " fill-opacity="1" fill-rule="evenodd"/><path fill="#172d13" d="M 60.820312 106.464844 L 67.058594 106.464844 C 67.898438 106.464844 68.585938 107.152344 68.585938 107.992188 L 68.585938 114.230469 C 68.585938 115.070312 67.898438 115.757812 67.058594 115.757812 L 60.820312 115.757812 C 59.980469 115.757812 59.292969 115.070312 59.292969 114.230469 L 59.292969 107.992188 C 59.292969 107.152344 59.980469 106.464844 60.820312 106.464844 Z M 60.820312 106.464844 " fill-opacity="1" fill-rule="evenodd"/><path fill="#172d13" d="M 38.644531 108.121094 L 42.640625 108.121094 C 43.175781 108.121094 43.632812 108.550781 43.632812 109.113281 L 43.632812 113.109375 C 43.632812 113.644531 43.199219 114.101562 42.640625 114.101562 L 38.644531 114.101562 C 38.109375 114.101562 37.648438 113.671875 37.648438 113.109375 L 37.648438 109.113281 C 37.648438 108.550781 38.109375 108.121094 38.644531 108.121094 Z M 38.644531 108.121094 " fill-opacity="1" fill-rule="evenodd"/><path fill="#172d13" d="M 29.042969 119.859375 L 31.335938 119.859375 C 31.640625 119.859375 31.894531 120.113281 31.894531 120.417969 L 31.894531 122.710938 C 31.894531 123.015625 31.640625 123.269531 31.335938 123.269531 L 29.042969 123.269531 C 28.738281 123.269531 28.484375 123.015625 28.484375 122.710938 L 28.484375 120.417969 C 28.484375 120.113281 28.738281 119.859375 29.042969 119.859375 Z M 29.042969 119.859375 " fill-opacity="1" fill-rule="evenodd"/><path fill="#172d13" d="M 26.191406 96.277344 L 29.984375 96.277344 C 30.496094 96.277344 30.929688 96.710938 30.929688 97.222656 L 30.929688 98.164062 L 47.300781 98.164062 L 47.300781 95.539062 C 47.300781 94.574219 48.089844 93.785156 49.058594 93.785156 L 56.210938 93.785156 C 57.179688 93.785156 57.96875 94.574219 57.96875 95.539062 L 57.96875 102.695312 C 57.96875 103.664062 57.179688 104.453125 56.210938 104.453125 L 53.589844 104.453125 L 53.589844 120.824219 L 54.53125 120.824219 C 55.039062 120.824219 55.472656 121.257812 55.472656 121.765625 L 55.472656 125.5625 C 55.472656 126.070312 55.039062 126.503906 54.53125 126.503906 L 50.738281 126.503906 C 50.226562 126.503906 49.796875 126.070312 49.796875 125.5625 L 49.796875 121.765625 C 49.796875 121.257812 50.226562 120.824219 50.738281 120.824219 L 51.679688 120.824219 L 51.679688 104.453125 L 49.058594 104.453125 C 48.089844 104.453125 47.300781 103.664062 47.300781 102.695312 L 47.300781 100.074219 L 30.929688 100.074219 L 30.929688 101.015625 C 30.929688 101.523438 30.496094 101.957031 29.984375 101.957031 L 26.191406 101.957031 C 25.683594 101.957031 25.25 101.523438 25.25 101.015625 L 25.25 97.222656 C 25.25 96.710938 25.65625 96.277344 26.191406 96.277344 Z M 26.191406 96.277344 " fill-opacity="1" fill-rule="evenodd"/><path fill="#172d13" d="M 114.648438 68.90625 L 108.410156 68.90625 C 107.570312 68.90625 106.882812 68.21875 106.882812 67.378906 L 106.882812 61.140625 C 106.882812 60.300781 107.570312 59.613281 108.410156 59.613281 L 114.648438 59.613281 C 115.488281 59.613281 116.175781 60.300781 116.175781 61.140625 L 116.175781 67.378906 C 116.203125 68.21875 115.515625 68.90625 114.648438 68.90625 Z M 114.648438 68.90625 " fill-opacity="1" fill-rule="evenodd"/><path fill="#172d13" d="M 90.203125 43.980469 L 83.964844 43.980469 C 83.125 43.980469 82.4375 43.292969 82.4375 42.453125 L 82.4375 36.214844 C 82.4375 35.371094 83.125 34.683594 83.964844 34.683594 L 90.203125 34.683594 C 91.042969 34.683594 91.730469 35.371094 91.730469 36.214844 L 91.730469 42.453125 C 91.730469 43.292969 91.042969 43.980469 90.203125 43.980469 Z M 90.203125 43.980469 " fill-opacity="1" fill-rule="evenodd"/><path fill="#172d13" d="M 112.355469 42.296875 L 108.359375 42.296875 C 107.824219 42.296875 107.367188 41.867188 107.367188 41.304688 L 107.367188 37.308594 C 107.367188 36.773438 107.800781 36.316406 108.359375 36.316406 L 112.355469 36.316406 C 112.890625 36.316406 113.351562 36.746094 113.351562 37.308594 L 113.351562 41.304688 C 113.351562 41.867188 112.917969 42.296875 112.355469 42.296875 Z M 112.355469 42.296875 " fill-opacity="1" fill-rule="evenodd"/><path fill="#172d13" d="M 121.980469 30.558594 L 119.691406 30.558594 C 119.382812 30.558594 119.128906 30.304688 119.128906 30 L 119.128906 27.707031 C 119.128906 27.402344 119.382812 27.148438 119.691406 27.148438 L 121.980469 27.148438 C 122.289062 27.148438 122.542969 27.402344 122.542969 27.707031 L 122.542969 30 C 122.542969 30.304688 122.289062 30.558594 121.980469 30.558594 Z M 121.980469 30.558594 " fill-opacity="1" fill-rule="evenodd"/><path fill="#172d13" d="M 124.832031 54.136719 L 121.039062 54.136719 C 120.53125 54.136719 120.097656 53.707031 120.097656 53.195312 L 120.097656 52.253906 L 103.726562 52.253906 L 103.726562 54.878906 C 103.726562 55.84375 102.9375 56.632812 101.96875 56.632812 L 94.8125 56.632812 C 93.847656 56.632812 93.054688 55.84375 93.054688 54.878906 L 93.054688 47.722656 C 93.054688 46.753906 93.847656 45.964844 94.8125 45.964844 L 97.4375 45.964844 L 97.4375 29.59375 L 96.492188 29.59375 C 95.984375 29.59375 95.550781 29.160156 95.550781 28.652344 L 95.550781 24.855469 C 95.550781 24.347656 95.984375 23.914062 96.492188 23.914062 L 100.289062 23.914062 C 100.796875 23.914062 101.230469 24.347656 101.230469 24.855469 L 101.230469 28.652344 C 101.230469 29.160156 100.796875 29.59375 100.289062 29.59375 L 99.34375 29.59375 L 99.34375 45.964844 L 101.96875 45.964844 C 102.9375 45.964844 103.726562 46.753906 103.726562 47.722656 L 103.726562 50.34375 L 120.097656 50.34375 L 120.097656 49.402344 C 120.097656 48.894531 120.53125 48.460938 121.039062 48.460938 L 124.832031 48.460938 C 125.34375 48.460938 125.777344 48.894531 125.777344 49.402344 L 125.777344 53.195312 C 125.777344 53.707031 125.34375 54.136719 124.832031 54.136719 Z M 124.832031 54.136719 " fill-opacity="1" fill-rule="evenodd"/><path fill="#172d13" d="M 36.351562 81.511719 L 42.589844 81.511719 C 43.429688 81.511719 44.117188 82.199219 44.117188 83.039062 L 44.117188 89.277344 C 44.117188 90.117188 43.429688 90.804688 42.589844 90.804688 L 36.351562 90.804688 C 35.511719 90.804688 34.824219 90.117188 34.824219 89.277344 L 34.824219 83.039062 C 34.824219 82.199219 35.511719 81.511719 36.351562 81.511719 Z M 36.351562 81.511719 " fill-opacity="1" fill-rule="evenodd"/><path fill="#172d13" d="M 69.199219 36.058594 L 69.199219 42.296875 C 69.199219 43.140625 68.511719 43.828125 67.671875 43.828125 L 61.433594 43.828125 C 60.589844 43.828125 59.902344 43.140625 59.902344 42.296875 L 59.902344 36.058594 C 59.902344 35.21875 60.589844 34.53125 61.433594 34.53125 L 67.671875 34.53125 C 68.511719 34.53125 69.199219 35.21875 69.199219 36.058594 Z M 69.199219 36.058594 " fill-opacity="1" fill-rule="evenodd"/><path fill="#172d13" d="M 78.59375 133.175781 C 78.59375 133.582031 78.515625 133.976562 78.359375 134.351562 C 78.203125 134.730469 77.980469 135.0625 77.691406 135.351562 C 77.402344 135.640625 77.070312 135.863281 76.691406 136.019531 C 76.3125 136.175781 75.921875 136.253906 75.511719 136.253906 C 75.105469 136.253906 74.710938 136.175781 74.332031 136.019531 C 73.957031 135.863281 73.621094 135.640625 73.335938 135.351562 C 73.046875 135.0625 72.824219 134.730469 72.667969 134.351562 C 72.511719 133.976562 72.433594 133.582031 72.433594 133.175781 C 72.433594 132.765625 72.511719 132.371094 72.667969 131.996094 C 72.824219 131.617188 73.046875 131.285156 73.335938 130.996094 C 73.621094 130.707031 73.957031 130.484375 74.332031 130.328125 C 74.710938 130.171875 75.105469 130.09375 75.511719 130.09375 C 75.921875 130.09375 76.3125 130.171875 76.691406 130.328125 C 77.070312 130.484375 77.402344 130.707031 77.691406 130.996094 C 77.980469 131.285156 78.203125 131.617188 78.359375 131.996094 C 78.515625 132.371094 78.59375 132.765625 78.59375 133.175781 Z M 78.59375 133.175781 " fill-opacity="1" fill-rule="nonzero"/><g clip-path="url(#dd679e915a)"><path fill="#172d13" d="M 75.511719 146.339844 L 74.214844 146.339844 C 73.859375 146.339844 73.578125 146.617188 73.578125 146.976562 L 73.578125 149.574219 C 73.578125 149.929688 73.859375 150.207031 74.214844 150.207031 L 76.8125 150.207031 C 77.167969 150.207031 77.449219 149.929688 77.449219 149.574219 L 77.449219 146.976562 C 77.449219 146.617188 77.167969 146.339844 76.8125 146.339844 Z M 75.511719 146.339844 " fill-opacity="1" fill-rule="evenodd"/></g><g clip-path="url(#831e556694)"><path fill="#172d13" d="M 70.394531 105.371094 L 74.671875 105.371094 L 74.671875 118.050781 L 73.042969 118.050781 C 72.378906 118.050781 71.820312 118.585938 71.820312 119.273438 L 71.820312 124.210938 C 71.820312 124.3125 71.820312 124.390625 71.847656 124.492188 L 65.402344 130.933594 L 63.011719 130.933594 C 62.628906 130.933594 62.296875 131.265625 62.296875 131.648438 L 62.296875 134.550781 C 62.296875 134.929688 62.628906 135.261719 63.011719 135.261719 L 65.914062 135.261719 C 66.296875 135.261719 66.625 134.929688 66.625 134.550781 L 66.625 131.648438 C 66.625 131.542969 66.601562 131.46875 66.574219 131.390625 L 72.636719 125.332031 C 72.761719 125.382812 72.914062 125.410156 73.066406 125.410156 L 78.007812 125.410156 C 78.160156 125.410156 78.3125 125.382812 78.441406 125.332031 L 84.5 131.390625 C 84.476562 131.46875 84.449219 131.542969 84.449219 131.648438 L 84.449219 134.550781 C 84.449219 134.929688 84.78125 135.261719 85.164062 135.261719 L 88.066406 135.261719 C 88.449219 135.261719 88.777344 134.929688 88.777344 134.550781 L 88.777344 131.648438 C 88.777344 131.265625 88.449219 130.933594 88.066406 130.933594 L 85.671875 130.933594 L 79.152344 124.464844 C 79.179688 124.390625 79.179688 124.289062 79.179688 124.1875 L 79.179688 119.246094 C 79.179688 118.585938 78.644531 118.023438 77.957031 118.023438 L 76.328125 118.023438 L 76.328125 105.371094 L 80.605469 105.371094 C 81.800781 105.371094 82.769531 104.402344 82.769531 103.203125 L 82.769531 92.96875 C 82.769531 91.773438 81.800781 90.804688 80.605469 90.804688 L 70.371094 90.804688 C 69.171875 90.804688 68.203125 91.773438 68.203125 92.96875 L 68.203125 103.203125 C 68.230469 104.402344 69.199219 105.371094 70.394531 105.371094 Z M 75.511719 146.339844 L 74.214844 146.339844 C 73.859375 146.339844 73.578125 146.617188 73.578125 146.976562 L 73.578125 149.574219 C 73.578125 149.929688 73.859375 150.207031 74.214844 150.207031 L 76.8125 150.207031 C 77.167969 150.207031 77.449219 149.929688 77.449219 149.574219 L 77.449219 146.976562 C 77.449219 146.617188 77.167969 146.339844 76.8125 146.339844 Z M 70.394531 45.046875 L 74.671875 45.046875 L 74.671875 32.367188 L 73.042969 32.367188 C 72.378906 32.367188 71.820312 31.832031 71.820312 31.144531 L 71.820312 26.207031 C 71.820312 26.105469 71.820312 26.027344 71.847656 25.925781 L 65.402344 19.484375 L 63.011719 19.484375 C 62.628906 19.484375 62.296875 19.152344 62.296875 18.769531 L 62.296875 15.894531 C 62.296875 15.511719 62.628906 15.179688 63.011719 15.179688 L 65.914062 15.179688 C 66.296875 15.179688 66.625 15.511719 66.625 15.894531 L 66.625 18.796875 C 66.625 18.898438 66.601562 18.976562 66.574219 19.050781 L 72.636719 25.109375 C 72.761719 25.058594 72.914062 25.035156 73.066406 25.035156 L 78.007812 25.035156 C 78.160156 25.035156 78.3125 25.058594 78.441406 25.109375 L 84.449219 19.050781 C 84.425781 18.976562 84.398438 18.898438 84.398438 18.796875 L 84.398438 15.894531 C 84.398438 15.511719 84.730469 15.179688 85.113281 15.179688 L 88.015625 15.179688 C 88.398438 15.179688 88.726562 15.511719 88.726562 15.894531 L 88.726562 18.796875 C 88.726562 19.179688 88.398438 19.507812 88.015625 19.507812 L 85.621094 19.507812 L 79.179688 25.953125 C 79.203125 26.027344 79.203125 26.128906 79.203125 26.230469 L 79.203125 31.171875 C 79.203125 31.832031 78.671875 32.394531 77.984375 32.394531 L 76.351562 32.394531 L 76.351562 45.074219 L 80.628906 45.074219 C 81.828125 45.074219 82.796875 46.042969 82.796875 47.238281 L 82.796875 57.472656 C 82.796875 58.671875 81.828125 59.636719 80.628906 59.636719 L 70.394531 59.636719 C 69.199219 59.636719 68.230469 58.671875 68.230469 57.472656 L 68.230469 47.238281 C 68.230469 46.015625 69.199219 45.046875 70.394531 45.046875 Z M 75.511719 4.078125 L 74.214844 4.078125 C 73.859375 4.078125 73.578125 3.800781 73.578125 3.441406 L 73.578125 0.84375 C 73.578125 0.488281 73.859375 0.207031 74.214844 0.207031 L 76.8125 0.207031 C 77.167969 0.207031 77.449219 0.488281 77.449219 0.84375 L 77.449219 3.441406 C 77.449219 3.800781 77.167969 4.078125 76.8125 4.078125 Z M 75.511719 14.164062 C 73.808594 14.164062 72.433594 15.539062 72.433594 17.242188 C 72.433594 18.949219 73.808594 20.324219 75.511719 20.324219 C 77.21875 20.324219 78.59375 18.949219 78.59375 17.242188 C 78.59375 15.539062 77.21875 14.164062 75.511719 14.164062 Z M 75.511719 136.253906 C 73.808594 136.253906 72.433594 134.878906 72.433594 133.175781 C 72.433594 131.46875 73.808594 130.09375 75.511719 130.09375 C 77.21875 130.09375 78.59375 131.46875 78.59375 133.175781 C 78.59375 134.878906 77.21875 136.253906 75.511719 136.253906 Z M 75.511719 136.253906 " fill-opacity="1" fill-rule="evenodd"/></g><g clip-path="url(#3c61512571)"><path fill="#172d13" d="M 45.339844 70.105469 L 45.339844 74.382812 L 32.660156 74.382812 L 32.660156 72.75 C 32.660156 72.089844 32.125 71.53125 31.4375 71.53125 L 26.496094 71.53125 C 26.394531 71.53125 26.320312 71.53125 26.21875 71.554688 L 19.773438 65.113281 L 19.773438 62.71875 C 19.773438 62.335938 19.445312 62.007812 19.0625 62.007812 L 16.183594 62.007812 C 15.804688 62.007812 15.472656 62.335938 15.472656 62.71875 L 15.472656 65.621094 C 15.472656 66.003906 15.804688 66.335938 16.183594 66.335938 L 19.085938 66.335938 C 19.164062 66.335938 19.265625 66.308594 19.34375 66.285156 L 25.402344 72.34375 C 25.351562 72.472656 25.324219 72.625 25.324219 72.777344 L 25.324219 77.71875 C 25.324219 77.871094 25.351562 78.023438 25.402344 78.148438 L 19.34375 84.160156 C 19.265625 84.132812 19.191406 84.109375 19.085938 84.109375 L 16.183594 84.109375 C 15.804688 84.109375 15.472656 84.4375 15.472656 84.820312 L 15.472656 87.722656 C 15.472656 88.105469 15.804688 88.4375 16.183594 88.4375 L 19.085938 88.4375 C 19.46875 88.4375 19.800781 88.105469 19.800781 87.722656 L 19.800781 85.332031 L 26.242188 78.886719 C 26.320312 78.914062 26.421875 78.914062 26.523438 78.914062 L 31.460938 78.914062 C 32.125 78.914062 32.683594 78.378906 32.683594 77.691406 L 32.683594 76.0625 L 45.363281 76.0625 L 45.363281 80.339844 C 45.363281 81.535156 46.332031 82.503906 47.53125 82.503906 L 57.765625 82.503906 C 58.960938 82.503906 59.929688 81.535156 59.929688 80.339844 L 59.929688 70.105469 C 59.929688 68.90625 58.960938 67.9375 57.765625 67.9375 L 47.53125 67.9375 C 46.308594 67.9375 45.339844 68.90625 45.339844 70.105469 Z M 4.371094 75.222656 L 4.371094 73.921875 C 4.371094 73.566406 4.089844 73.285156 3.734375 73.285156 L 1.136719 73.285156 C 0.78125 73.285156 0.5 73.566406 0.5 73.921875 L 0.5 76.519531 C 0.5 76.875 0.78125 77.15625 1.136719 77.15625 L 3.734375 77.15625 C 4.089844 77.15625 4.371094 76.875 4.371094 76.519531 Z M 105.660156 70.105469 L 105.660156 74.382812 L 118.339844 74.382812 L 118.339844 72.75 C 118.339844 72.089844 118.875 71.53125 119.5625 71.53125 L 124.503906 71.53125 C 124.605469 71.53125 124.679688 71.53125 124.78125 71.554688 L 131.226562 65.113281 L 131.226562 62.71875 C 131.226562 62.335938 131.554688 62.007812 131.9375 62.007812 L 134.839844 62.007812 C 135.222656 62.007812 135.554688 62.335938 135.554688 62.71875 L 135.554688 65.621094 C 135.554688 66.003906 135.222656 66.335938 134.839844 66.335938 L 131.9375 66.335938 C 131.863281 66.335938 131.757812 66.308594 131.683594 66.285156 L 125.621094 72.34375 C 125.675781 72.472656 125.699219 72.625 125.699219 72.777344 L 125.699219 77.71875 C 125.699219 77.871094 125.675781 78.023438 125.621094 78.148438 L 131.683594 84.210938 C 131.757812 84.183594 131.835938 84.160156 131.9375 84.160156 L 134.839844 84.160156 C 135.222656 84.160156 135.554688 84.488281 135.554688 84.871094 L 135.554688 87.773438 C 135.554688 88.15625 135.222656 88.488281 134.839844 88.488281 L 131.9375 88.488281 C 131.554688 88.488281 131.226562 88.15625 131.226562 87.773438 L 131.226562 85.382812 L 124.757812 78.863281 C 124.679688 78.886719 124.578125 78.886719 124.476562 78.886719 L 119.539062 78.886719 C 118.875 78.886719 118.316406 78.351562 118.316406 77.664062 L 118.316406 76.035156 L 105.660156 76.035156 L 105.660156 80.3125 C 105.660156 81.511719 104.691406 82.476562 103.496094 82.476562 L 93.261719 82.476562 C 92.0625 82.476562 91.097656 81.511719 91.097656 80.3125 L 91.097656 70.078125 C 91.097656 68.882812 92.0625 67.914062 93.261719 67.914062 L 103.496094 67.914062 C 104.691406 67.9375 105.660156 68.90625 105.660156 70.105469 Z M 146.628906 75.222656 L 146.628906 73.921875 C 146.628906 73.566406 146.910156 73.285156 147.265625 73.285156 L 149.863281 73.285156 C 150.21875 73.285156 150.5 73.566406 150.5 73.921875 L 150.5 76.519531 C 150.5 76.875 150.21875 77.15625 149.863281 77.15625 L 147.265625 77.15625 C 146.910156 77.15625 146.628906 76.875 146.628906 76.519531 Z M 136.546875 75.222656 C 136.546875 73.515625 135.171875 72.140625 133.464844 72.140625 C 131.757812 72.140625 130.382812 73.515625 130.382812 75.222656 C 130.382812 76.925781 131.757812 78.328125 133.464844 78.328125 C 135.171875 78.300781 136.546875 76.925781 136.546875 75.222656 Z M 14.453125 75.222656 C 14.453125 73.515625 15.828125 72.140625 17.535156 72.140625 C 19.242188 72.140625 20.617188 73.515625 20.617188 75.222656 C 20.617188 76.925781 19.242188 78.328125 17.535156 78.328125 C 15.828125 78.300781 14.453125 76.925781 14.453125 75.222656 Z M 14.453125 75.222656 " fill-opacity="1" fill-rule="evenodd"/></g><path fill="#172d13" d="M 82.082031 85.023438 L 68.945312 85.023438 C 67.160156 85.023438 65.710938 83.574219 65.710938 81.789062 L 65.710938 68.652344 C 65.710938 66.871094 67.160156 65.417969 68.945312 65.417969 L 82.082031 65.417969 C 83.863281 65.417969 85.316406 66.871094 85.316406 68.652344 L 85.316406 81.789062 C 85.316406 83.574219 83.863281 85.023438 82.082031 85.023438 Z M 82.082031 85.023438 " fill-opacity="1" fill-rule="evenodd"/></g></g></g><g fill="#ffffff" fill-opacity="1"><g transform="translate(74.816301, 200.958839)"><g><path d="M 41.15625 -31.453125 C 44.519531 -27.796875 46.203125 -23.304688 46.203125 -17.984375 C 46.203125 -12.671875 44.519531 -8.171875 41.15625 -4.484375 C 37.800781 -0.796875 33.53125 1.046875 28.34375 1.046875 C 23.582031 1.046875 19.664062 -0.445312 16.59375 -3.4375 L 16.59375 18.203125 L 4.203125 18.203125 L 4.203125 -35.90625 L 16.453125 -35.90625 L 16.453125 -31.84375 L 16.59375 -31.84375 C 19.664062 -35.25 23.582031 -36.953125 28.34375 -36.953125 C 33.53125 -36.953125 37.800781 -35.117188 41.15625 -31.453125 Z M 30.625 -11.890625 C 32.238281 -13.484375 33.046875 -15.515625 33.046875 -17.984375 C 33.046875 -20.460938 32.273438 -22.484375 30.734375 -24.046875 C 29.191406 -25.609375 27.160156 -26.390625 24.640625 -26.390625 C 22.210938 -26.390625 20.21875 -25.59375 18.65625 -24 C 17.09375 -22.414062 16.3125 -20.410156 16.3125 -17.984375 C 16.3125 -15.515625 17.113281 -13.484375 18.71875 -11.890625 C 20.332031 -10.304688 22.304688 -9.515625 24.640625 -9.515625 C 27.015625 -9.515625 29.007812 -10.304688 30.625 -11.890625 Z M 30.625 -11.890625 "/></g></g></g><g fill="#ffffff" fill-opacity="1"><g transform="translate(116.393686, 200.958839)"><g><path d="M 4.203125 0 L 4.203125 -60.203125 L 16.59375 -60.203125 L 16.59375 0 Z M 4.203125 0 "/></g></g></g><g fill="#ffffff" fill-opacity="1"><g transform="translate(130.952555, 200.958839)"><g><path d="M 6.640625 -4.4375 C 3.285156 -8.101562 1.609375 -12.597656 1.609375 -17.921875 C 1.609375 -23.242188 3.285156 -27.742188 6.640625 -31.421875 C 10.003906 -35.109375 14.273438 -36.953125 19.453125 -36.953125 C 24.210938 -36.953125 28.132812 -35.460938 31.21875 -32.484375 L 31.21875 -35.90625 L 43.609375 -35.90625 L 43.609375 0 L 31.359375 0 L 31.359375 -4.0625 L 31.21875 -4.0625 C 28.132812 -0.65625 24.210938 1.046875 19.453125 1.046875 C 14.273438 1.046875 10.003906 -0.78125 6.640625 -4.4375 Z M 17.171875 -24 C 15.566406 -22.414062 14.765625 -20.382812 14.765625 -17.90625 C 14.765625 -15.4375 15.535156 -13.421875 17.078125 -11.859375 C 18.617188 -10.296875 20.648438 -9.515625 23.171875 -9.515625 C 25.597656 -9.515625 27.59375 -10.304688 29.15625 -11.890625 C 30.71875 -13.484375 31.5 -15.492188 31.5 -17.921875 C 31.5 -20.390625 30.691406 -22.414062 29.078125 -24 C 27.472656 -25.59375 25.503906 -26.390625 23.171875 -26.390625 C 20.785156 -26.390625 18.785156 -25.59375 17.171875 -24 Z M 17.171875 -24 "/></g></g></g><g fill="#ffffff" fill-opacity="1"><g transform="translate(172.529933, 200.958839)"><g><path d="M 4.203125 0 L 4.203125 -35.90625 L 16.59375 -35.90625 L 16.59375 -32.125 L 16.734375 -32.125 C 19.953125 -35.34375 23.378906 -36.953125 27.015625 -36.953125 C 28.796875 -36.953125 30.5625 -36.71875 32.3125 -36.25 C 34.0625 -35.789062 35.738281 -35.070312 37.34375 -34.09375 C 38.957031 -33.113281 40.265625 -31.722656 41.265625 -29.921875 C 42.265625 -28.128906 42.765625 -26.039062 42.765625 -23.65625 L 42.765625 0 L 30.375 0 L 30.375 -20.296875 C 30.375 -22.160156 29.78125 -23.789062 28.59375 -25.1875 C 27.40625 -26.59375 25.851562 -27.296875 23.9375 -27.296875 C 22.070312 -27.296875 20.378906 -26.570312 18.859375 -25.125 C 17.347656 -23.675781 16.59375 -22.066406 16.59375 -20.296875 L 16.59375 0 Z M 4.203125 0 "/></g></g></g><g fill="#ffffff" fill-opacity="1"><g transform="translate(212.567406, 200.958839)"><g><path d="M 37.234375 -57.75 L 37.234375 -46.203125 L 17.359375 -46.203125 L 17.359375 -34.71875 L 36.40625 -34.71875 L 36.40625 -23.171875 L 17.359375 -23.171875 L 17.359375 -11.546875 L 37.234375 -11.546875 L 37.234375 0 L 4.203125 0 L 4.203125 -57.75 Z M 37.234375 -57.75 "/></g></g></g><g fill="#ffffff" fill-opacity="1"><g transform="translate(246.935179, 200.958839)"><g><path d="M 0.5625 -46.203125 L 0.5625 -57.75 L 41.15625 -57.75 L 41.15625 -46.203125 L 27.4375 -46.203125 L 27.4375 0 L 14.28125 0 L 14.28125 -46.203125 Z M 0.5625 -46.203125 "/></g></g></g><path fill="#ffffff" d="M 283.574219 210.894531 L 283.570312 210.875 L 283.566406 210.878906 Z M 283.574219 210.894531 " fill-opacity="1" fill-rule="nonzero"/><path fill="#ffffff" d="M 243.246094 220.28125 L 243.25 220.28125 C 243.246094 220.269531 243.238281 220.257812 243.234375 220.246094 L 243.230469 220.246094 C 243.234375 220.257812 243.242188 220.269531 243.246094 220.28125 " fill-opacity="1" fill-rule="nonzero"/><path fill="#ffffff" d="M 221.238281 227.214844 C 221.238281 227.21875 221.238281 227.222656 221.242188 227.222656 L 221.238281 227.214844 " fill-opacity="1" fill-rule="nonzero"/><g clip-path="url(#e42ab960e7)"><path fill="#ffffff" d="M 182.378906 232.285156 C 182.742188 233.167969 183.265625 233.992188 183.902344 234.695312 C 184.542969 235.398438 185.28125 235.972656 186.046875 236.4375 C 187.585938 237.367188 189.222656 237.898438 190.828125 238.246094 C 192.445312 238.585938 194.046875 238.746094 195.636719 238.816406 C 197.222656 238.882812 198.792969 238.839844 200.351562 238.746094 C 203.46875 238.546875 206.535156 238.109375 209.554688 237.515625 C 211.0625 237.21875 212.5625 236.890625 214.050781 236.519531 C 215.535156 236.15625 217.015625 235.757812 218.480469 235.328125 C 220.773438 234.667969 223.039062 233.9375 225.285156 233.15625 C 226.742188 232.652344 228.1875 232.125 229.628906 231.582031 C 231.65625 230.820312 233.675781 230.019531 235.679688 229.203125 C 239.03125 227.832031 242.355469 226.402344 245.664062 224.941406 C 247.007812 224.351562 248.34375 223.753906 249.683594 223.152344 C 250.574219 222.753906 251.460938 222.355469 252.347656 221.957031 C 257.859375 219.460938 263.339844 216.90625 268.789062 214.28125 C 272.429688 212.523438 276.09375 210.738281 279.710938 208.929688 C 280.371094 208.597656 281.457031 208.046875 282.179688 207.679688 C 282.660156 207.4375 282.75 206.769531 282.332031 206.425781 C 282.308594 206.40625 282.285156 206.386719 282.261719 206.375 C 281.617188 205.980469 280.8125 205.96875 280.160156 206.34375 C 279.78125 206.5625 279.371094 206.796875 279.082031 206.964844 C 275.476562 209.050781 271.832031 211.058594 268.132812 212.96875 C 262.78125 215.734375 257.332031 218.320312 251.78125 220.660156 C 251.390625 220.828125 251.003906 220.988281 250.613281 221.148438 C 250.414062 221.234375 250.21875 221.316406 250.019531 221.394531 C 249.929688 221.429688 249.839844 221.464844 249.753906 221.503906 C 249.621094 221.558594 249.484375 221.613281 249.347656 221.667969 C 249.21875 221.722656 249.085938 221.777344 248.953125 221.828125 C 248.855469 221.871094 248.753906 221.910156 248.65625 221.949219 C 248.417969 222.046875 248.179688 222.140625 247.941406 222.238281 C 247.9375 222.234375 247.9375 222.238281 247.933594 222.238281 C 247.589844 222.375 247.246094 222.507812 246.90625 222.644531 C 246.5625 222.777344 246.214844 222.882812 245.871094 223.015625 C 245.527344 223.148438 245.183594 223.277344 244.832031 223.382812 L 244.824219 223.382812 C 241.554688 224.742188 238.195312 225.816406 234.839844 226.894531 C 232.476562 227.65625 230.09375 228.34375 227.722656 229.058594 L 227.71875 229.0625 C 226.234375 229.511719 224.75 229.960938 223.234375 230.300781 C 223.234375 230.300781 223.234375 230.300781 223.230469 230.300781 L 223.214844 230.304688 C 221.34375 230.875 219.433594 231.316406 217.539062 231.773438 C 216.8125 231.945312 216.089844 232.128906 215.363281 232.292969 C 214.636719 232.457031 213.914062 232.625 213.1875 232.78125 C 211.730469 233.089844 210.28125 233.390625 208.820312 233.65625 C 205.910156 234.1875 202.992188 234.625 200.085938 234.851562 C 198.632812 234.960938 197.1875 235.007812 195.753906 234.984375 C 194.324219 234.957031 192.914062 234.84375 191.566406 234.589844 C 190.222656 234.335938 188.933594 233.949219 187.867188 233.347656 C 186.796875 232.746094 185.984375 231.949219 185.519531 230.9375 C 185.046875 229.933594 184.9375 228.699219 185.089844 227.402344 C 185.246094 226.101562 185.660156 224.761719 186.1875 223.449219 C 186.71875 222.132812 187.378906 220.839844 188.113281 219.574219 C 188.835938 218.308594 189.644531 217.070312 190.488281 215.851562 C 192.179688 213.414062 194.046875 211.074219 195.984375 208.785156 C 197.925781 206.496094 199.949219 204.261719 202.011719 202.050781 L 201.710938 201.730469 C 199.347656 203.625 197.058594 205.621094 194.863281 207.730469 C 192.667969 209.835938 190.5625 212.054688 188.609375 214.433594 C 186.675781 216.824219 184.863281 219.363281 183.472656 222.25 C 182.789062 223.695312 182.214844 225.238281 181.917969 226.929688 C 181.769531 227.773438 181.699219 228.65625 181.765625 229.5625 C 181.824219 230.46875 182.019531 231.398438 182.378906 232.285156 " fill-opacity="1" fill-rule="nonzero"/></g><path fill="#ffffff" d="M 320.722656 219.128906 C 320.722656 219.136719 320.722656 219.140625 320.722656 219.140625 C 320.726562 219.144531 320.726562 219.152344 320.726562 219.15625 L 320.769531 219.125 C 320.753906 219.125 320.738281 219.128906 320.722656 219.128906 " fill-opacity="1" fill-rule="nonzero"/><g clip-path="url(#ec62f1ddf6)"><path fill="#ffffff" d="M 277.65625 199.378906 L 281.246094 201.601562 L 282.21875 202.203125 C 282.21875 202.203125 284.582031 203.667969 284.601562 203.679688 C 285.148438 204.015625 285.640625 204.445312 285.945312 205.019531 C 286.214844 205.523438 286.292969 206.085938 286.402344 206.636719 C 286.574219 207.492188 286.746094 208.34375 286.914062 209.195312 L 286.917969 209.203125 L 287.882812 214.011719 C 288.015625 214.660156 288.523438 214.902344 289.023438 214.550781 C 289.527344 214.199219 289.953125 213.375 289.96875 212.714844 L 290.085938 207.550781 L 290.085938 207.546875 L 290.15625 204.078125 L 295.175781 200.84375 L 295.542969 200.605469 L 295.546875 200.605469 L 309.839844 191.398438 L 309.964844 192.003906 L 309.964844 192.007812 L 309.972656 192.015625 L 310.023438 192.007812 L 310.929688 195.585938 L 310.933594 195.605469 L 315.699219 217.1875 C 315.800781 217.636719 316.039062 217.9375 316.375 217.832031 L 316.394531 217.828125 C 316.519531 217.789062 316.664062 217.726562 316.804688 217.628906 L 319.058594 216.050781 C 319.582031 215.6875 320.003906 214.875 319.980469 214.238281 L 319.792969 208.195312 C 319.953125 208.167969 320.0625 208.042969 320.203125 207.941406 L 321.195312 207.25 L 321.460938 207.066406 C 321.988281 206.699219 322.226562 206.082031 321.859375 205.558594 L 321.59375 205.175781 C 321.476562 205.007812 321.308594 204.867188 321.121094 204.769531 C 320.722656 204.558594 320.21875 204.523438 319.863281 204.769531 L 319.636719 204.929688 L 319.511719 199.664062 C 319.671875 199.636719 319.878906 199.648438 320.019531 199.550781 L 320.539062 199.1875 L 321.238281 198.699219 C 321.761719 198.332031 321.898438 197.582031 321.53125 197.058594 L 321.265625 196.679688 C 321.027344 196.335938 320.582031 196.097656 320.15625 196.078125 C 319.929688 196.066406 319.707031 196.117188 319.527344 196.242188 L 319.335938 196.375 L 319.167969 190.433594 L 319.160156 190.167969 L 319.039062 186 L 319.023438 185.414062 L 326.246094 180.882812 L 326.304688 180.847656 C 327.957031 179.777344 330.609375 176.871094 331.410156 174.734375 C 331.683594 174 331.742188 173.359375 331.464844 172.910156 C 331.207031 172.492188 330.683594 172.28125 330 172.226562 C 327.832031 172.039062 324.082031 173.402344 322.390625 174.496094 C 322.359375 174.515625 319.828125 176.417969 316.128906 179.203125 C 316.007812 179.292969 315.886719 179.386719 315.765625 179.480469 C 315.578125 179.621094 315.386719 179.765625 315.191406 179.910156 L 314.832031 179.761719 L 314.589844 179.664062 L 311.273438 178.308594 L 304.945312 175.734375 L 305.136719 175.601562 C 305.660156 175.234375 305.816406 174.519531 305.453125 173.996094 L 305.1875 173.613281 C 304.820312 173.089844 304.175781 173.105469 303.652344 173.46875 L 302.429688 174.324219 C 302.289062 174.421875 302.113281 174.453125 302.03125 174.59375 L 297.023438 172.492188 L 297.25 172.335938 C 297.773438 171.96875 297.957031 171.277344 297.589844 170.75 L 297.324219 170.371094 C 296.960938 169.847656 296.175781 169.675781 295.648438 170.042969 L 294.390625 170.921875 C 294.25 171.019531 294.140625 171.148438 294.058594 171.289062 L 288.453125 169.007812 C 287.859375 168.769531 286.914062 168.828125 286.394531 169.195312 L 284.140625 170.765625 C 283.617188 171.128906 283.65625 171.757812 284.191406 172.105469 L 302.023438 183.644531 L 305.613281 185.972656 L 306.453125 186.515625 C 306.183594 186.722656 305.90625 186.925781 305.632812 187.132812 C 298.140625 192.78125 290.394531 198.621094 287.714844 200.644531 L 284.59375 199.574219 L 281.054688 198.363281 L 279.597656 197.863281 C 278.972656 197.652344 278.054688 197.765625 277.554688 198.113281 C 277.050781 198.460938 277.097656 199.03125 277.65625 199.378906 " fill-opacity="1" fill-rule="nonzero"/></g></svg>