<svg xmlns="http://www.w3.org/2000/svg" xmlns:xlink="http://www.w3.org/1999/xlink" width="500" zoomAndPan="magnify" viewBox="0 0 375 374.999991" height="500" preserveAspectRatio="xMidYMid meet" version="1.0"><defs><clipPath id="e3a9f15fce"><path d="M 119 126.65625 L 262 126.65625 L 262 248.15625 L 119 248.15625 Z M 119 126.65625 " clip-rule="nonzero"/></clipPath></defs><rect x="-37.5" width="450" fill="#ffffff" y="-37.499999" height="449.999989" fill-opacity="1"/><rect x="-37.5" width="450" fill="#d76f30" y="-37.499999" height="449.999989" fill-opacity="1"/><g clip-path="url(#e3a9f15fce)"><path fill="#ffffff" d="M 241.097656 206.882812 C 233.195312 228.253906 212.625 243.53125 188.539062 243.53125 C 187.898438 243.53125 187.261719 243.503906 186.625 243.484375 C 186.925781 242.738281 187.339844 242.03125 188.28125 241.207031 C 190.574219 239.199219 192.4375 239.628906 193.296875 237.910156 C 194.15625 236.191406 193.867188 235.046875 194.871094 232.898438 C 195.066406 232.476562 195.363281 232.023438 195.699219 231.550781 C 187.234375 235.230469 178.742188 238.066406 170.65625 239.949219 C 170.636719 240.152344 170.617188 240.355469 170.605469 240.570312 C 170.257812 240.453125 169.917969 240.324219 169.574219 240.199219 C 166.667969 240.847656 163.824219 241.363281 161.054688 241.753906 C 169.316406 245.957031 178.652344 248.34375 188.539062 248.34375 C 213.070312 248.34375 234.25 233.746094 243.867188 212.785156 Z M 164.6875 206.117188 C 163.539062 205.363281 163.578125 205.972656 163.578125 205.972656 C 163.117188 206.167969 163.96875 206.6875 165.152344 207.253906 C 166.332031 207.820312 165.761719 208.191406 166.441406 208.632812 C 167.121094 209.078125 168.230469 208.335938 168.375 207.582031 C 168.515625 206.832031 165.832031 206.867188 164.6875 206.117188 Z M 210.945312 214.382812 C 209.925781 213.226562 209.640625 212.003906 209.726562 210.832031 C 164.09375 240.984375 112.519531 238.570312 125.394531 204.378906 C 125.457031 204.214844 125.496094 203.523438 125.449219 203.347656 C 125.074219 201.839844 124.769531 200.355469 124.523438 198.929688 C 124.480469 198.667969 124.101562 198.722656 123.957031 199.011719 C 119.992188 206.964844 117.917969 215.890625 121.460938 223.496094 C 131.878906 246.441406 177.511719 238.414062 213.945312 215.996094 C 212.78125 215.8125 211.714844 215.261719 210.945312 214.382812 Z M 168.378906 209.554688 C 169.375 210.125 169.292969 209.375 170.714844 209.554688 C 172.132812 209.730469 172.457031 209.769531 172.457031 209.769531 C 172.457031 209.769531 173.683594 209.433594 173.316406 209.085938 C 172.671875 208.480469 172.671875 208.480469 172.671875 208.480469 C 172.671875 208.480469 171.417969 208.011719 170.414062 208.226562 C 169.414062 208.441406 167.382812 208.980469 168.378906 209.554688 Z M 197.558594 169.269531 C 199.488281 168.410156 199.703125 166.261719 203.25 165.617188 C 206.792969 164.972656 208.511719 164.757812 209.265625 161.429688 C 210.015625 158.097656 211.628906 157.777344 211.628906 154.984375 C 211.628906 152.191406 212.058594 147.574219 213.5625 145.960938 C 215.066406 144.351562 218.179688 142.632812 214.957031 142.847656 C 211.734375 143.0625 213.453125 142.847656 209.695312 142.523438 C 205.933594 142.203125 205.613281 141.664062 207.332031 141.234375 C 209.050781 140.804688 211.519531 141.019531 210.875 139.730469 C 210.230469 138.441406 209.800781 136.507812 206.578125 137.261719 C 203.355469 138.011719 201.355469 140.160156 198.273438 140.589844 C 195.191406 141.019531 193.902344 141.34375 192.9375 143.167969 C 191.96875 144.996094 188.855469 144.886719 187.457031 146.605469 C 186.0625 148.324219 185.953125 150.796875 188.210938 150.6875 C 190.464844 150.582031 191.753906 152.085938 191.753906 154.445312 C 191.753906 156.8125 193.582031 160.570312 192.078125 162.398438 C 190.574219 164.222656 189.714844 166.261719 191.113281 169.269531 C 192.507812 172.277344 193.582031 176.144531 194.871094 174.640625 C 196.160156 173.136719 196.160156 173.136719 196.160156 173.136719 C 196.160156 173.136719 195.621094 170.128906 197.558594 169.269531 Z M 148.449219 226.578125 C 138.59375 216.480469 132.507812 202.691406 132.507812 187.5 C 132.507812 182.0625 133.300781 176.808594 134.753906 171.835938 C 134.84375 172.511719 135.183594 173.226562 136.148438 174.320312 C 138.296875 176.753906 139.15625 180.191406 137.867188 183.199219 C 136.578125 186.207031 135.144531 188.640625 136.148438 190.933594 C 137.152344 193.226562 136.070312 194.515625 138.472656 195.804688 C 140.875 197.09375 141.304688 198.667969 142.449219 200.671875 C 143.597656 202.679688 143.597656 202.679688 143.597656 202.679688 C 143.597656 202.679688 146.460938 204.539062 146.460938 206.976562 C 146.460938 209.410156 148.179688 210.414062 150.757812 210.699219 C 153.335938 210.984375 153.480469 210.414062 155.484375 211.558594 C 157.488281 212.703125 159.351562 211.273438 159.351562 213.851562 C 159.351562 216.429688 160.066406 219.148438 162.359375 218.003906 C 164.652344 216.859375 165.796875 216.96875 165.9375 218.273438 C 166.082031 219.578125 167.085938 219.722656 164.652344 221.152344 C 162.214844 222.585938 163.503906 221.871094 162.789062 224.449219 C 162.710938 224.730469 162.632812 224.957031 162.558594 225.15625 C 169.15625 223.867188 176.386719 221.691406 183.878906 218.574219 C 181.785156 217.835938 182.433594 218.785156 180.40625 217.429688 C 178.257812 215.996094 178.972656 213.851562 175.964844 213.5625 C 172.957031 213.277344 172.957031 213.277344 172.957031 213.277344 C 172.957031 213.277344 173.242188 212.5625 170.238281 213.417969 C 167.230469 214.28125 167.085938 213.992188 165.082031 214.710938 C 163.074219 215.425781 160.640625 214.421875 161.929688 213.132812 C 163.21875 211.84375 163.21875 211.84375 163.21875 211.84375 C 163.21875 211.84375 164.078125 210.269531 161.929688 209.695312 C 159.78125 209.125 157.917969 210.4375 159.351562 208.632812 C 160.785156 206.832031 161.5 204.398438 159.351562 205.257812 C 157.203125 206.117188 157.773438 207.691406 155.914062 207.976562 C 154.050781 208.265625 152.332031 207.691406 152.332031 206.402344 C 152.332031 205.113281 150.902344 204.539062 153.050781 202.679688 C 155.195312 200.816406 152.476562 199.957031 156.488281 200.53125 C 160.496094 201.101562 161.355469 199.242188 162.929688 201.53125 C 164.507812 203.824219 165.222656 205.542969 165.367188 204.828125 C 165.507812 204.109375 165.082031 201.675781 165.507812 200.242188 C 165.9375 198.8125 166.511719 199.527344 168.660156 197.664062 C 170.808594 195.804688 169.199219 195.535156 169.789062 194.621094 C 170.378906 193.707031 170.058594 192.3125 171.5625 191.988281 C 173.066406 191.667969 174.246094 190.96875 174.945312 190.058594 C 175.644531 189.144531 175.589844 188.554688 177.253906 188.554688 C 178.917969 188.554688 178.917969 188.554688 178.917969 188.554688 C 178.917969 188.554688 182.25 188.230469 181.710938 187.261719 C 181.175781 186.296875 180.90625 186.511719 180.046875 186.78125 C 179.1875 187.050781 178.058594 186.621094 178.597656 185.921875 C 179.132812 185.222656 179.507812 184.683594 178.597656 184.09375 C 177.683594 183.503906 178.058594 183.34375 180.207031 183.289062 C 182.355469 183.234375 183.808594 181.464844 183.699219 182.699219 C 183.589844 183.933594 182.085938 185.328125 183.164062 185.546875 C 184.238281 185.757812 186.4375 186.40625 186.976562 186.082031 C 187.511719 185.757812 187.726562 185.117188 186.707031 185.007812 C 185.6875 184.902344 185.203125 184.738281 184.988281 183.933594 C 184.773438 183.128906 186.332031 180.925781 185.09375 179.582031 C 183.859375 178.242188 182.464844 179.367188 182.304688 177.488281 C 182.140625 175.609375 182.410156 171.632812 181.605469 172.546875 C 180.800781 173.460938 179.1875 176.039062 178.652344 174.855469 C 178.113281 173.675781 179.777344 172.601562 178.652344 171.847656 C 177.523438 171.097656 176.339844 169.109375 175.214844 169.378906 C 174.085938 169.648438 173.65625 169.269531 173.601562 170.558594 C 173.546875 171.847656 172.582031 172.332031 172.636719 174.105469 C 172.6875 175.878906 173.386719 176.039062 172.152344 177.917969 C 170.917969 179.796875 170.808594 180.171875 170.808594 180.171875 C 170.808594 180.171875 170.539062 182.429688 169.359375 181.515625 C 168.175781 180.601562 168.175781 180.601562 168.175781 180.601562 C 168.175781 180.601562 170.058594 178.027344 168.769531 177.433594 C 167.480469 176.84375 166.566406 176.574219 165.597656 175.394531 C 164.632812 174.210938 161.945312 171.902344 163.988281 170.128906 C 166.027344 168.359375 166.78125 168.035156 167.800781 167.070312 C 168.820312 166.101562 169.089844 166.371094 169.464844 166.960938 C 169.84375 167.550781 170.378906 167.335938 172.042969 167.714844 C 173.710938 168.089844 173.925781 167.390625 173.011719 166.046875 C 172.097656 164.707031 171.722656 165.027344 172.957031 164.0625 C 174.191406 163.09375 176.074219 161.160156 176.019531 160.140625 C 175.964844 159.121094 177.148438 158.316406 177.738281 159.871094 C 178.328125 161.429688 179.992188 161.429688 179.402344 162.933594 C 178.8125 164.4375 179.027344 165.242188 177.523438 165.566406 C 176.019531 165.886719 174.675781 166.691406 176.179688 167.230469 C 177.683594 167.765625 178.007812 167.714844 178.4375 168.734375 C 178.867188 169.753906 180.371094 171.257812 181.011719 170.722656 C 181.660156 170.183594 182.464844 170.398438 182.085938 168.789062 C 181.710938 167.175781 181.121094 164.542969 182.140625 165.671875 C 183.164062 166.800781 183.96875 167.445312 184.613281 166.53125 C 185.257812 165.617188 185.953125 165.78125 184.773438 164.222656 C 183.589844 162.664062 181.390625 162.71875 182.410156 161.859375 C 183.429688 161 185.578125 161.105469 182.949219 159.066406 C 180.316406 157.023438 181.820312 155.683594 180.15625 154.609375 C 178.488281 153.535156 177.09375 152.835938 176.019531 153.855469 C 174.945312 154.878906 175.265625 152.300781 175.910156 150.742188 C 176.554688 149.183594 177.84375 149.453125 179.5625 148.808594 C 181.28125 148.164062 185.363281 146.5 186.4375 144.566406 C 187.511719 142.632812 189.824219 141.664062 190.898438 140.914062 C 191.96875 140.160156 194.871094 139.300781 194.117188 137.796875 C 193.367188 136.292969 193.421875 135.328125 190.84375 135.863281 C 188.265625 136.402344 186.007812 137.046875 182.894531 137.421875 C 179.777344 137.796875 179.132812 138.171875 176.71875 139.140625 C 174.300781 140.105469 170.058594 140 166.996094 140.914062 C 163.933594 141.824219 161.785156 141.664062 160.980469 143.4375 C 160.175781 145.210938 159.90625 145.691406 157.21875 147.359375 C 154.535156 149.023438 153.03125 149.507812 153.835938 151.117188 C 154.644531 152.730469 157.703125 155.738281 156.253906 156.113281 C 154.804688 156.488281 152.496094 153.320312 150.453125 153.050781 C 148.414062 152.78125 146.265625 154.554688 144.976562 153.695312 C 144.773438 153.558594 144.539062 153.378906 144.296875 153.179688 C 154.558594 139.984375 170.566406 131.46875 188.539062 131.46875 C 208.984375 131.46875 226.902344 142.480469 236.6875 158.882812 C 234.820312 159.261719 234.09375 159.710938 234.546875 161.859375 C 235.121094 164.582031 236.554688 165.726562 237.699219 165.726562 C 238.371094 165.726562 236.355469 166.757812 235.019531 167.785156 C 235.15625 167.777344 235.296875 167.773438 235.414062 167.773438 C 236.691406 167.773438 237.828125 168.058594 238.804688 168.539062 C 238.957031 168.417969 239.113281 168.289062 239.273438 168.160156 C 240.34375 167.304688 240.613281 167.089844 240.683594 167.035156 C 240.96875 167.761719 241.238281 168.496094 241.492188 169.238281 L 245.933594 167.332031 C 237.59375 143.667969 215.019531 126.65625 188.539062 126.65625 C 154.988281 126.65625 127.695312 153.949219 127.695312 187.5 C 127.695312 202.078125 132.855469 215.472656 141.433594 225.960938 C 143.558594 226.339844 145.90625 226.550781 148.449219 226.578125 Z M 240.820312 194.960938 C 235.046875 199.125 228.496094 203.535156 223.375 206.722656 L 223.945312 217.351562 L 221.257812 219.710938 L 217.347656 210.238281 C 215.773438 211.054688 214.757812 211.4375 214.558594 211.207031 C 214.359375 210.984375 214.871094 210.027344 215.890625 208.574219 L 206.996094 203.464844 L 209.683594 201.105469 L 220.171875 203.050781 C 224 198.390625 229.226562 192.46875 234.097656 187.289062 L 211.445312 172.820312 L 214.113281 170.476562 L 231.070312 175.214844 C 232.304688 173.910156 232.65625 173.628906 232.933594 173.386719 C 234.117188 172.34375 236.441406 172.4375 236.933594 172.996094 C 237.390625 173.515625 237.148438 175.597656 236.253906 176.664062 L 242.957031 178.539062 C 245.007812 176.652344 246.488281 175.375 246.9375 174.980469 C 250.292969 172.035156 260.003906 168.832031 261.234375 170.234375 C 262.464844 171.636719 257.746094 181.097656 254.675781 183.792969 C 254.140625 184.261719 252.699219 185.554688 250.632812 187.292969 L 251.621094 194.171875 C 252.792969 193.421875 254.890625 193.449219 255.347656 193.96875 C 255.839844 194.53125 255.628906 196.847656 254.441406 197.886719 C 254.167969 198.128906 253.839844 198.441406 252.386719 199.496094 L 254.890625 216.925781 L 252.222656 219.265625 L 240.820312 194.960938 " fill-opacity="1" fill-rule="nonzero"/></g></svg>