<?xml version="1.0" encoding="utf-8"?>
<!-- Generator: Adobe Illustrator 25.4.1, SVG Export Plug-In . SVG Version: 6.00 Build 0)  -->
<svg version="1.1" id="Layer_1" xmlns="http://www.w3.org/2000/svg" xmlns:xlink="http://www.w3.org/1999/xlink" x="0px" y="0px"
	 viewBox="0 0 500 500" style="enable-background:new 0 0 500 500;" xml:space="preserve">
<style type="text/css">
	.st0{fill:#D76F30;}
	.st1{fill:#FFFFFF;}
</style>
<rect class="st0" width="500" height="500"/>
<path class="st1" d="M321.5,275.8c-10.5,28.5-38,48.9-70.1,48.9c-0.9,0-1.7,0-2.6-0.1c0.4-1,1-1.9,2.2-3c3.1-2.7,5.5-2.1,6.7-4.4
	c1.1-2.3,0.8-3.8,2.1-6.7c0.3-0.6,0.7-1.2,1.1-1.8c-11.3,4.9-22.6,8.7-33.4,11.2c0,0.3-0.1,0.5-0.1,0.8c-0.5-0.2-0.9-0.3-1.4-0.5
	c-3.9,0.9-7.7,1.6-11.4,2.1c11,5.6,23.5,8.8,36.6,8.8c32.7,0,60.9-19.5,73.8-47.4L321.5,275.8z M219.6,274.8c-1.5-1-1.5-0.2-1.5-0.2
	c-0.6,0.3,0.5,1,2.1,1.7c1.6,0.8,0.8,1.2,1.7,1.8c0.9,0.6,2.4-0.4,2.6-1.4C224.7,275.8,221.1,275.8,219.6,274.8z M281.3,285.8
	c-1.4-1.5-1.7-3.2-1.6-4.7c-60.8,40.2-129.6,37-112.4-8.6c0.1-0.2,0.1-1.1,0.1-1.4c-0.5-2-0.9-4-1.2-5.9c-0.1-0.3-0.6-0.3-0.8,0.1
	c-5.3,10.6-8.1,22.5-3.3,32.6c13.9,30.6,74.7,19.9,123.3-10C283.7,287.8,282.3,287,281.3,285.8z M224.5,279.4c1.3,0.8,1.2-0.2,3.1,0
	c1.9,0.2,2.3,0.3,2.3,0.3s1.6-0.4,1.1-0.9c-0.9-0.8-0.9-0.8-0.9-0.8s-1.7-0.6-3-0.3C225.9,277.9,223.2,278.6,224.5,279.4z
	 M263.4,225.7c2.6-1.1,2.9-4,7.6-4.9c4.7-0.9,7-1.1,8-5.6c1-4.4,3.2-4.9,3.2-8.6c0-3.7,0.6-9.9,2.6-12c2-2.1,6.2-4.4,1.9-4.2
	s-2,0-7-0.4c-5-0.4-5.4-1.1-3.2-1.7c2.3-0.6,5.6-0.3,4.7-2s-1.4-4.3-5.7-3.3c-4.3,1-7,3.9-11.1,4.4c-4.1,0.6-5.8,1-7.1,3.4
	c-1.3,2.4-5.4,2.3-7.3,4.6c-1.9,2.3-2,5.6,1,5.4c3-0.1,4.7,1.9,4.7,5c0,3.2,2.4,8.2,0.4,10.6c-2,2.4-3.2,5.2-1.3,9.2
	c1.9,4,3.3,9.2,5,7.2s1.7-2,1.7-2S260.8,226.8,263.4,225.7z M197.9,302.1c-13.1-13.5-21.3-31.8-21.3-52.1c0-7.2,1.1-14.3,3-20.9
	c0.1,0.9,0.6,1.9,1.9,3.3c2.9,3.2,4,7.8,2.3,11.8c-1.7,4-3.6,7.3-2.3,10.3c1.3,3.1-0.1,4.8,3.1,6.5s3.8,3.8,5.3,6.5
	c1.5,2.7,1.5,2.7,1.5,2.7s3.8,2.5,3.8,5.7c0,3.2,2.3,4.6,5.7,5c3.4,0.4,3.6-0.4,6.3,1.1c2.7,1.5,5.2-0.4,5.2,3.1s1,7.1,4,5.5
	c3.1-1.5,4.6-1.4,4.8,0.4c0.2,1.7,1.5,1.9-1.7,3.8c-3.2,1.9-1.5,1-2.5,4.4c-0.1,0.4-0.2,0.7-0.3,0.9c8.8-1.7,18.4-4.6,28.4-8.8
	c-2.8-1-1.9,0.3-4.6-1.5c-2.9-1.9-1.9-4.8-5.9-5.2c-4-0.4-4-0.4-4-0.4s0.4-1-3.6,0.2c-4,1.2-4.2,0.8-6.9,1.7c-2.7,1-5.9-0.4-4.2-2.1
	s1.7-1.7,1.7-1.7s1.1-2.1-1.7-2.9c-2.9-0.8-5.3,1-3.4-1.4c1.9-2.4,2.9-5.6,0-4.5c-2.9,1.1-2.1,3.2-4.6,3.6c-2.5,0.4-4.8-0.4-4.8-2.1
	s-1.9-2.5,1-5c2.9-2.5-0.8-3.6,4.6-2.9c5.3,0.8,6.5-1.7,8.6,1.3c2.1,3.1,3.1,5.3,3.2,4.4c0.2-1-0.4-4.2,0.2-6.1
	c0.6-1.9,1.3-1,4.2-3.4c2.9-2.5,0.7-2.8,1.5-4.1s0.4-3.1,2.4-3.5c2-0.4,3.6-1.4,4.5-2.6c0.9-1.2,0.9-2,3.1-2s2.2,0,2.2,0
	s4.4-0.4,3.7-1.7c-0.7-1.3-1.1-1-2.2-0.6c-1.1,0.4-2.7-0.2-1.9-1.1c0.7-0.9,1.2-1.7,0-2.4c-1.2-0.8-0.7-1,2.1-1.1s4.8-2.4,4.7-0.8
	c-0.1,1.6-2.2,3.5-0.7,3.8c1.4,0.3,4.4,1.1,5.1,0.7c0.7-0.4,1-1.3-0.4-1.4c-1.4-0.1-2-0.4-2.3-1.4s1.8-4,0.1-5.8
	c-1.6-1.8-3.5-0.3-3.7-2.8c-0.2-2.5,0.1-7.8-0.9-6.6c-1.1,1.2-3.2,4.7-3.9,3.1c-0.7-1.6,1.5-3,0-4c-1.5-1-3.1-3.7-4.6-3.3
	c-1.5,0.4-2.1-0.1-2.2,1.6c-0.1,1.7-1.4,2.4-1.3,4.7c0.1,2.4,1,2.6-0.6,5.1c-1.6,2.5-1.8,3-1.8,3s-0.4,3-1.9,1.8
	c-1.6-1.2-1.6-1.2-1.6-1.2s2.5-3.4,0.8-4.2c-1.7-0.8-2.9-1.1-4.2-2.7c-1.3-1.6-4.9-4.7-2.1-7c2.7-2.4,3.7-2.8,5.1-4.1
	c1.4-1.3,1.7-0.9,2.2-0.1c0.5,0.8,1.2,0.5,3.4,1c2.2,0.5,2.5-0.4,1.3-2.2c-1.2-1.8-1.7-1.4-0.1-2.6c1.6-1.3,4.2-3.9,4.1-5.2
	c-0.1-1.4,1.5-2.4,2.3-0.4c0.8,2.1,3,2.1,2.2,4.1c-0.8,2-0.5,3.1-2.5,3.5c-2,0.4-3.8,1.5-1.8,2.2c2,0.7,2.4,0.6,3,2s2.6,3.4,3.4,2.7
	c0.9-0.7,1.9-0.4,1.4-2.6c-0.5-2.2-1.3-5.7,0.1-4.2c1.4,1.5,2.4,2.4,3.3,1.1s1.8-1,0.2-3.1c-1.6-2.1-4.5-2-3.2-3.2
	c1.4-1.1,4.2-1,0.7-3.7c-3.5-2.7-1.5-4.5-3.7-5.9c-2.2-1.4-4.1-2.4-5.5-1c-1.4,1.4-1-2.1-0.1-4.2s2.6-1.7,4.9-2.6s7.7-3.1,9.2-5.7
	c1.4-2.6,4.5-3.9,5.9-4.9c1.4-1,5.3-2.2,4.3-4.2c-1-2-0.9-3.3-4.4-2.6c-3.4,0.7-6.4,1.6-10.6,2.1c-4.2,0.5-5,1-8.2,2.3
	c-3.2,1.3-8.9,1.1-13,2.4c-4.1,1.2-6.9,1-8,3.4c-1.1,2.4-1.4,3-5,5.2c-3.6,2.2-5.6,2.9-4.5,5c1.1,2.2,5.2,6.2,3.2,6.7
	s-5-3.7-7.7-4.1c-2.7-0.4-5.6,2-7.3,0.9c-0.3-0.2-0.6-0.4-0.9-0.7c13.7-17.6,35-28.9,59-28.9c27.3,0,51.2,14.7,64.2,36.6
	c-2.5,0.5-3.5,1.1-2.9,4c0.8,3.6,2.7,5.2,4.2,5.2c0.9,0-1.8,1.4-3.6,2.7c0.2,0,0.4,0,0.5,0c1.7,0,3.2,0.4,4.5,1
	c0.2-0.2,0.4-0.3,0.6-0.5c1.4-1.1,1.8-1.4,1.9-1.5c0.4,1,0.7,1.9,1.1,2.9l5.9-2.5c-11.1-31.6-41.2-54.2-76.5-54.2
	c-44.7,0-81.1,36.4-81.1,81.1c0,19.4,6.9,37.3,18.3,51.3C191.4,301.8,194.5,302.1,197.9,302.1z M321.1,259.9
	c-7.7,5.6-16.4,11.4-23.3,15.7l0.8,14.2l-3.6,3.1l-5.2-12.6c-2.1,1.1-3.5,1.6-3.7,1.3c-0.3-0.3,0.4-1.6,1.8-3.5l-11.9-6.8l3.6-3.1
	l14,2.6c5.1-6.2,12.1-14.1,18.6-21l-30.2-19.3l3.6-3.1l22.6,6.3c1.6-1.7,2.1-2.1,2.5-2.4c1.6-1.4,4.7-1.3,5.3-0.5
	c0.6,0.7,0.3,3.5-0.9,4.9l8.9,2.5c2.7-2.5,4.7-4.2,5.3-4.7c4.5-3.9,17.4-8.2,19.1-6.3s-4.7,14.5-8.7,18.1c-0.7,0.6-2.6,2.3-5.4,4.7
	l1.3,9.2c1.6-1,4.4-1,5-0.3c0.7,0.8,0.4,3.8-1.2,5.2c-0.4,0.3-0.8,0.7-2.7,2.1l3.3,23.2l-3.6,3.1L321.1,259.9"/>
</svg>
