<?xml version="1.0" encoding="utf-8"?>
<!-- Generator: Adobe Illustrator 25.4.1, SVG Export Plug-In . SVG Version: 6.00 Build 0)  -->
<svg version="1.1" id="Layer_1" xmlns="http://www.w3.org/2000/svg" xmlns:xlink="http://www.w3.org/1999/xlink" x="0px" y="0px"
	 viewBox="0 0 300 300" style="enable-background:new 0 0 300 300;" xml:space="preserve">
<style type="text/css">
	.st0{fill:#D76F30;}
	.st1{fill:#FFFFFF;}
</style>
<path class="st0" d="M150,0L150,0c82.8,0,150,67.2,150,150v0c0,82.8-67.2,150-150,150h0C67.2,300,0,232.8,0,150v0
	C0,67.2,67.2,0,150,0z"/>
<path class="st1" d="M243.2,184.1c-13.9,37.7-50.3,64.7-92.7,64.7c-1.2,0-2.2,0-3.4-0.1c0.5-1.3,1.3-2.5,2.9-4
	c4.1-3.6,7.3-2.8,8.9-5.8c1.5-3,1.1-5,2.8-8.9c0.4-0.8,0.9-1.6,1.5-2.4c-14.9,6.5-29.9,11.5-44.2,14.8c0,0.4-0.1,0.7-0.1,1.1
	c-0.7-0.3-1.2-0.4-1.9-0.7c-5.2,1.2-10.2,2.1-15.1,2.8c14.5,7.4,31.1,11.6,48.4,11.6c43.2,0,80.5-25.8,97.6-62.7L243.2,184.1z
	 M108.5,182.8c-2-1.3-2-0.3-2-0.3c-0.8,0.4,0.7,1.3,2.8,2.2c2.1,1.1,1.1,1.6,2.2,2.4c1.2,0.8,3.2-0.5,3.4-1.9
	C115.2,184.1,110.4,184.1,108.5,182.8z M190.1,197.3c-1.9-2-2.2-4.2-2.1-6.2c-80.4,53.2-171.4,48.9-148.6-11.4
	c0.1-0.3,0.1-1.5,0.1-1.9c-0.7-2.6-1.2-5.3-1.6-7.8c-0.1-0.4-0.8-0.4-1.1,0.1c-7,14-10.7,29.8-4.4,43.1
	c18.4,40.5,98.8,26.3,163.1-13.2C193.2,200,191.4,198.9,190.1,197.3z M114.9,188.9c1.7,1.1,1.6-0.3,4.1,0c2.5,0.3,3,0.4,3,0.4
	s2.1-0.5,1.5-1.2c-1.2-1.1-1.2-1.1-1.2-1.1s-2.2-0.8-4-0.4C116.8,186.9,113.2,187.8,114.9,188.9z M166.4,117.9
	c3.4-1.5,3.8-5.3,10.1-6.5s9.3-1.5,10.6-7.4c1.3-5.8,4.2-6.5,4.2-11.4c0-4.9,0.8-13.1,3.4-15.9c2.6-2.8,8.2-5.8,2.5-5.6
	c-5.7,0.3-2.6,0-9.3-0.5c-6.6-0.5-7.1-1.5-4.2-2.2c3-0.8,7.4-0.4,6.2-2.6c-1.2-2.2-1.9-5.7-7.5-4.4c-5.7,1.3-9.3,5.2-14.7,5.8
	c-5.4,0.8-7.7,1.3-9.4,4.5c-1.7,3.2-7.1,3-9.7,6.1c-2.5,3-2.6,7.4,1.3,7.1c4-0.1,6.2,2.5,6.2,6.6c0,4.2,3.2,10.8,0.5,14
	c-2.6,3.2-4.2,6.9-1.7,12.2c2.5,5.3,4.4,12.2,6.6,9.5c2.2-2.6,2.2-2.6,2.2-2.6S162.9,119.3,166.4,117.9z M79.8,218.9
	C62.4,201,51.6,176.8,51.6,150c0-9.5,1.5-18.9,4-27.6c0.1,1.2,0.8,2.5,2.5,4.4c3.8,4.2,5.3,10.3,3,15.6s-4.8,9.7-3,13.6
	c1.7,4.1-0.1,6.3,4.1,8.6s5,5,7,8.6c2,3.6,2,3.6,2,3.6s5,3.3,5,7.5c0,4.2,3,6.1,7.5,6.6s4.8-0.5,8.3,1.5c3.6,2,6.9-0.5,6.9,4.1
	s1.3,9.4,5.3,7.3c4.1-2,6.1-1.9,6.3,0.5c0.3,2.2,2,2.5-2.2,5s-2,1.3-3.3,5.8c-0.1,0.5-0.3,0.9-0.4,1.2c11.6-2.2,24.3-6.1,37.6-11.6
	c-3.7-1.3-2.5,0.4-6.1-2c-3.8-2.5-2.5-6.3-7.8-6.9c-5.3-0.5-5.3-0.5-5.3-0.5s0.5-1.3-4.8,0.3s-5.6,1.1-9.1,2.2
	c-3.6,1.3-7.8-0.5-5.6-2.8s2.2-2.2,2.2-2.2s1.5-2.8-2.2-3.8c-3.8-1.1-7,1.3-4.5-1.9c2.5-3.2,3.8-7.4,0-6s-2.8,4.2-6.1,4.8
	c-3.3,0.5-6.3-0.5-6.3-2.8s-2.5-3.3,1.3-6.6s-1.1-4.8,6.1-3.8c7,1.1,8.6-2.2,11.4,1.7c2.8,4.1,4.1,7,4.2,5.8
	c0.3-1.3-0.5-5.6,0.3-8.1c0.8-2.5,1.7-1.3,5.6-4.5c3.8-3.3,0.9-3.7,2-5.4c1.1-1.7,0.5-4.1,3.2-4.6s4.8-1.9,6-3.4
	c1.2-1.6,1.2-2.6,4.1-2.6c2.9,0,2.9,0,2.9,0s5.8-0.5,4.9-2.2c-0.9-1.7-1.5-1.3-2.9-0.8c-1.5,0.5-3.6-0.3-2.5-1.5
	c0.9-1.2,1.6-2.2,0-3.2c-1.6-1.1-0.9-1.3,2.8-1.5s6.3-3.2,6.2-1.1c-0.1,2.1-2.9,4.6-0.9,5c1.9,0.4,5.8,1.5,6.7,0.9
	c0.9-0.5,1.3-1.7-0.5-1.9c-1.9-0.1-2.6-0.5-3-1.9c-0.4-1.3,2.4-5.3,0.1-7.7c-2.1-2.4-4.6-0.4-4.9-3.7s0.1-10.3-1.2-8.7
	c-1.5,1.6-4.2,6.2-5.2,4.1c-0.9-2.1,2-4,0-5.3c-2-1.3-4.1-4.9-6.1-4.4c-2,0.5-2.8-0.1-2.9,2.1c-0.1,2.2-1.9,3.2-1.7,6.2
	c0.1,3.2,1.3,3.4-0.8,6.7s-2.4,4-2.4,4s-0.5,4-2.5,2.4c-2.1-1.6-2.1-1.6-2.1-1.6s3.3-4.5,1.1-5.6s-3.8-1.5-5.6-3.6
	c-1.7-2.1-6.5-6.2-2.8-9.3c3.6-3.2,4.9-3.7,6.7-5.4c1.9-1.7,2.2-1.2,2.9-0.1c0.7,1.1,1.6,0.7,4.5,1.3c2.9,0.7,3.3-0.5,1.7-2.9
	s-2.2-1.9-0.1-3.4c2.1-1.7,5.6-5.2,5.4-6.9c-0.1-1.9,2-3.2,3-0.5c1.1,2.8,4,2.8,2.9,5.4c-1.1,2.6-0.7,4.1-3.3,4.6
	c-2.6,0.5-5,2-2.4,2.9c2.6,0.9,3.2,0.8,4,2.6s3.4,4.5,4.5,3.6c1.2-0.9,2.5-0.5,1.9-3.4c-0.7-2.9-1.7-7.5,0.1-5.6
	c1.9,2,3.2,3.2,4.4,1.5s2.4-1.3,0.3-4.1c-2.1-2.8-6-2.6-4.2-4.2c1.9-1.5,5.6-1.3,0.9-4.9c-4.6-3.6-2-6-4.9-7.8
	c-2.9-1.9-5.4-3.2-7.3-1.3c-1.9,1.9-1.3-2.8-0.1-5.6c1.2-2.8,3.4-2.2,6.5-3.4s10.2-4.1,12.2-7.5c1.9-3.4,6-5.2,7.8-6.5
	c1.9-1.3,7-2.9,5.7-5.6c-1.3-2.6-1.2-4.4-5.8-3.4c-4.5,0.9-8.5,2.1-14,2.8c-5.6,0.7-6.6,1.3-10.8,3c-4.2,1.7-11.8,1.5-17.2,3.2
	c-5.4,1.6-9.1,1.3-10.6,4.5c-1.5,3.2-1.9,4-6.6,6.9c-4.8,2.9-7.4,3.8-6,6.6c1.5,2.9,6.9,8.2,4.2,8.9C91,95.1,87,89.6,83.5,89
	c-3.6-0.5-7.4,2.6-9.7,1.2c-0.4-0.3-0.8-0.5-1.2-0.9c18.1-23.3,46.3-38.2,78-38.2c36.1,0,67.7,19.4,84.9,48.4
	c-3.3,0.7-4.6,1.5-3.8,5.3c1.1,4.8,3.6,6.9,5.6,6.9c1.2,0-2.4,1.9-4.8,3.6c0.3,0,0.5,0,0.7,0c2.2,0,4.2,0.5,6,1.3
	c0.3-0.3,0.5-0.4,0.8-0.7c1.9-1.5,2.4-1.9,2.5-2c0.5,1.3,0.9,2.5,1.5,3.8l7.8-3.3C237,72.6,197.2,42.8,150.5,42.8
	C91.4,42.8,43.3,90.9,43.3,150c0,25.7,9.1,49.3,24.2,67.8C71.2,218.5,75.3,218.9,79.8,218.9z M242.7,163.1
	c-10.2,7.4-21.7,15.1-30.8,20.8l1.1,18.8l-4.8,4.1l-6.9-16.7c-2.8,1.5-4.6,2.1-4.9,1.7c-0.4-0.4,0.5-2.1,2.4-4.6l-15.7-9l4.8-4.1
	l18.5,3.4c6.7-8.2,16-18.6,24.6-27.8L191,124.2l4.8-4.1l29.9,8.3c2.1-2.2,2.8-2.8,3.3-3.2c2.1-1.9,6.2-1.7,7-0.7
	c0.8,0.9,0.4,4.6-1.2,6.5l11.8,3.3c3.6-3.3,6.2-5.6,7-6.2c6-5.2,23-10.8,25.3-8.3c2.2,2.5-6.2,19.2-11.5,23.9
	c-0.9,0.8-3.4,3-7.1,6.2l1.7,12.2c2.1-1.3,5.8-1.3,6.6-0.4c0.9,1.1,0.5,5-1.6,6.9c-0.5,0.4-1.1,0.9-3.6,2.8l4.4,30.7l-4.8,4.1
	L242.7,163.1"/>
</svg>
