<?xml version="1.0" encoding="utf-8"?>
<!-- Generator: Adobe Illustrator 25.4.1, SVG Export Plug-In . SVG Version: 6.00 Build 0)  -->
<svg version="1.1" id="Layer_1" xmlns="http://www.w3.org/2000/svg" xmlns:xlink="http://www.w3.org/1999/xlink" x="0px" y="0px"
	 viewBox="0 0 336.9 200" style="enable-background:new 0 0 336.9 200;" xml:space="preserve">
<style type="text/css">
	.st0{display:none;fill:#D76F30;}
	.st1{opacity:0.18;}
	.st2{fill-rule:evenodd;clip-rule:evenodd;fill:#172D13;}
	.st3{fill:#172D13;}
	.st4{clip-path:url(#SVGID_00000009569649040281433890000003234463993299146381_);}
	.st5{clip-path:url(#SVGID_00000122692993621636647940000000935591823766635441_);}
	.st6{clip-path:url(#SVGID_00000098907976421156419830000010018860635381680287_);}
	.st7{fill:#FFFFFF;}
</style>
<rect x="-105.3" y="-142.9" class="st0" width="500" height="500"/>
<g class="st1">
	<path class="st2" d="M103.1,80.5v8.3c0,1.1-0.9,2-2,2h-8.4c-1.1,0-2-0.9-2-2v-8.3c0-1.1,0.9-2,2-2h8.3
		C102.1,78.4,103.1,79.3,103.1,80.5z"/>
	<path class="st2" d="M100.8,50.9v5.3c0,0.7-0.6,1.3-1.3,1.3h-5.3c-0.7,0-1.3-0.6-1.3-1.3v-5.3c0-0.7,0.6-1.3,1.3-1.3h5.3
		C100.2,49.6,100.8,50.2,100.8,50.9z"/>
	<path class="st2" d="M85.2,38.1v3.1c0,0.4-0.3,0.8-0.7,0.8h-3.1c-0.4,0-0.8-0.3-0.8-0.8v-3.1c0-0.4,0.3-0.8,0.8-0.8h3.1
		C84.8,37.4,85.2,37.7,85.2,38.1z"/>
	<path class="st2" d="M116.6,34.3v5.1c0,0.7-0.6,1.3-1.3,1.3H114v21.8h3.5c1.3,0,2.3,1.1,2.3,2.3v9.5c0,1.3-1.1,2.3-2.3,2.3H108
		c-1.3,0-2.3-1.1-2.3-2.3v-3.5H83.9v1.3c0,0.7-0.6,1.3-1.3,1.3h-5.1c-0.7,0-1.3-0.6-1.3-1.3V67c0-0.7,0.6-1.3,1.3-1.3h5.1
		c0.7,0,1.3,0.6,1.3,1.3v1.3h21.8v-3.5c0-1.3,1.1-2.3,2.3-2.3h3.5V40.7h-1.3c-0.7,0-1.3-0.6-1.3-1.3v-5.1c0-0.7,0.6-1.3,1.3-1.3h5.1
		C116,33,116.6,33.6,116.6,34.3z"/>
	<path class="st2" d="M153.1,152.2v-8.3c0-1.1,0.9-2,2-2h8.3c1.1,0,2,0.9,2,2v8.3c0,1.1-0.9,2-2,2h-8.3
		C154,154.3,153.1,153.4,153.1,152.2z"/>
	<path class="st2" d="M186.4,119.7v-8.3c0-1.1,0.9-2,2-2h8.3c1.1,0,2,0.9,2,2v8.3c0,1.1-0.9,2-2,2h-8.3
		C187.3,121.7,186.4,120.8,186.4,119.7z"/>
	<path class="st2" d="M188.6,149.2v-5.3c0-0.7,0.6-1.3,1.3-1.3h5.3c0.7,0,1.3,0.6,1.3,1.3v5.3c0,0.7-0.6,1.3-1.3,1.3h-5.3
		C189.2,150.5,188.6,149.9,188.6,149.2z"/>
	<path class="st2" d="M204.3,162v-3.1c0-0.4,0.3-0.7,0.7-0.7h3.1c0.4,0,0.7,0.3,0.7,0.7v3.1c0,0.4-0.3,0.7-0.7,0.7H205
		C204.6,162.8,204.3,162.4,204.3,162z"/>
	<path class="st2" d="M172.8,165.8v-5.1c0-0.7,0.6-1.3,1.3-1.3h1.3v-21.8h-3.5c-1.3,0-2.3-1.1-2.3-2.3v-9.5c0-1.3,1.1-2.3,2.3-2.3
		h9.5c1.3,0,2.3,1.1,2.3,2.3v3.5h21.8V128c0-0.7,0.6-1.3,1.3-1.3h5.1c0.7,0,1.3,0.6,1.3,1.3v5.1c0,0.7-0.6,1.3-1.3,1.3h-5.1
		c-0.7,0-1.3-0.6-1.3-1.3v-1.3h-21.8v3.5c0,1.3-1.1,2.3-2.3,2.3h-3.5v21.8h1.3c0.7,0,1.3,0.6,1.3,1.3v5.1c0,0.7-0.6,1.3-1.3,1.3
		h-5.1C173.4,167.1,172.8,166.5,172.8,165.8z"/>
	<path class="st2" d="M125.1,141.7h8.3c1.1,0,2,0.9,2,2v8.3c0,1.1-0.9,2-2,2h-8.3c-1.1,0-2-0.9-2-2v-8.3
		C123.1,142.6,124,141.7,125.1,141.7z"/>
	<path class="st2" d="M95.6,143.9h5.3c0.7,0,1.3,0.6,1.3,1.3v5.3c0,0.7-0.6,1.3-1.3,1.3h-5.3c-0.7,0-1.3-0.6-1.3-1.3v-5.3
		C94.2,144.5,94.8,143.9,95.6,143.9z"/>
	<path class="st2" d="M82.8,159.6h3.1c0.4,0,0.7,0.3,0.7,0.7v3.1c0,0.4-0.3,0.7-0.7,0.7h-3.1c-0.4,0-0.7-0.3-0.7-0.7v-3.1
		C82,159.9,82.4,159.6,82.8,159.6z"/>
	<path class="st2" d="M79,128.1h5.1c0.7,0,1.3,0.6,1.3,1.3v1.3h21.8v-3.5c0-1.3,1.1-2.3,2.3-2.3h9.5c1.3,0,2.3,1.1,2.3,2.3v9.5
		c0,1.3-1.1,2.3-2.3,2.3h-3.5v21.8h1.3c0.7,0,1.3,0.6,1.3,1.3v5.1c0,0.7-0.6,1.3-1.3,1.3h-5.1c-0.7,0-1.3-0.6-1.3-1.3v-5.1
		c0-0.7,0.6-1.3,1.3-1.3h1.3V139h-3.5c-1.3,0-2.3-1.1-2.3-2.3v-3.5H85.4v1.3c0,0.7-0.6,1.3-1.3,1.3H79c-0.7,0-1.3-0.6-1.3-1.3v-5.1
		C77.7,128.7,78.2,128.1,79,128.1z"/>
	<path class="st2" d="M196.9,91.6h-8.3c-1.1,0-2-0.9-2-2v-8.3c0-1.1,0.9-2,2-2h8.3c1.1,0,2,0.9,2,2v8.3
		C199,90.7,198.1,91.6,196.9,91.6z"/>
	<path class="st2" d="M164.3,58.4H156c-1.1,0-2-0.9-2-2v-8.3c0-1.1,0.9-2,2-2h8.3c1.1,0,2,0.9,2,2v8.3
		C166.3,57.5,165.4,58.4,164.3,58.4z"/>
	<path class="st2" d="M193.8,56.2h-5.3c-0.7,0-1.3-0.6-1.3-1.3v-5.3c0-0.7,0.6-1.3,1.3-1.3h5.3c0.7,0,1.3,0.6,1.3,1.3v5.3
		C195.2,55.6,194.6,56.2,193.8,56.2z"/>
	<path class="st2" d="M206.7,40.5h-3.1c-0.4,0-0.8-0.3-0.8-0.7v-3.1c0-0.4,0.3-0.7,0.8-0.7h3.1c0.4,0,0.8,0.3,0.8,0.7v3.1
		C207.4,40.2,207.1,40.5,206.7,40.5z"/>
	<path class="st2" d="M210.5,71.9h-5.1c-0.7,0-1.3-0.6-1.3-1.3v-1.3h-21.8v3.5c0,1.3-1.1,2.3-2.3,2.3h-9.5c-1.3,0-2.3-1.1-2.3-2.3
		v-9.5c0-1.3,1.1-2.3,2.3-2.3h3.5V39.2h-1.3c-0.7,0-1.3-0.6-1.3-1.3v-5.1c0-0.7,0.6-1.3,1.3-1.3h5.1c0.7,0,1.3,0.6,1.3,1.3v5.1
		c0,0.7-0.6,1.3-1.3,1.3h-1.3v21.9h3.5c1.3,0,2.3,1.1,2.3,2.3v3.5h21.8v-1.3c0-0.7,0.6-1.3,1.3-1.3h5.1c0.7,0,1.3,0.6,1.3,1.3v5.1
		C211.7,71.4,211.2,71.9,210.5,71.9z"/>
	<path class="st2" d="M92.5,108.4h8.3c1.1,0,2,0.9,2,2v8.3c0,1.1-0.9,2-2,2h-8.3c-1.1,0-2-0.9-2-2v-8.3
		C90.5,109.4,91.4,108.4,92.5,108.4z"/>
	<path class="st2" d="M136.3,47.8v8.3c0,1.1-0.9,2-2,2H126c-1.1,0-2-0.9-2-2v-8.3c0-1.1,0.9-2,2-2h8.3
		C135.4,45.8,136.3,46.7,136.3,47.8z"/>
	<path class="st3" d="M148.8,177.3c0,0.5-0.1,1.1-0.3,1.6s-0.5,0.9-0.9,1.3s-0.8,0.7-1.3,0.9c-0.5,0.2-1,0.3-1.6,0.3
		c-0.5,0-1.1-0.1-1.6-0.3c-0.5-0.2-0.9-0.5-1.3-0.9c-0.4-0.4-0.7-0.8-0.9-1.3s-0.3-1-0.3-1.6c0-0.5,0.1-1.1,0.3-1.6s0.5-0.9,0.9-1.3
		s0.8-0.7,1.3-0.9c0.5-0.2,1-0.3,1.6-0.3c0.5,0,1.1,0.1,1.6,0.3c0.5,0.2,0.9,0.5,1.3,0.9c0.4,0.4,0.7,0.8,0.9,1.3
		C148.7,176.3,148.8,176.8,148.8,177.3z"/>
	<g>
		<g>
			<defs>
				<rect id="SVGID_1_" x="141.4" y="194.4" width="6.7" height="5.6"/>
			</defs>
			<clipPath id="SVGID_00000140699217648713871810000016575590368134433687_">
				<use xlink:href="#SVGID_1_"  style="overflow:visible;"/>
			</clipPath>
			<g style="clip-path:url(#SVGID_00000140699217648713871810000016575590368134433687_);">
				<path class="st2" d="M144.7,194.9H143c-0.5,0-0.8,0.4-0.8,0.8v3.5c0,0.5,0.4,0.8,0.8,0.8h3.5c0.5,0,0.8-0.4,0.8-0.8v-3.5
					c0-0.5-0.4-0.8-0.8-0.8H144.7z"/>
			</g>
		</g>
	</g>
	<g>
		<g>
			<defs>
				<rect id="SVGID_00000150790492955919320040000003941565135777582229_" x="126.7" width="36" height="200"/>
			</defs>
			<clipPath id="SVGID_00000085223953233174869770000005098513172177735302_">
				<use xlink:href="#SVGID_00000150790492955919320040000003941565135777582229_"  style="overflow:visible;"/>
			</clipPath>
			<g style="clip-path:url(#SVGID_00000085223953233174869770000005098513172177735302_);">
				<path class="st2" d="M137.9,140.3h5.7v16.9h-2.2c-0.9,0-1.6,0.7-1.6,1.6v6.6c0,0.1,0,0.2,0,0.4l-8.6,8.6H128c-0.5,0-1,0.4-1,1
					v3.9c0,0.5,0.4,0.9,1,0.9h3.9c0.5,0,0.9-0.4,0.9-0.9v-3.9c0-0.1,0-0.2-0.1-0.3l8.1-8.1c0.2,0.1,0.4,0.1,0.6,0.1h6.6
					c0.2,0,0.4,0,0.6-0.1l8.1,8.1c0,0.1-0.1,0.2-0.1,0.3v3.9c0,0.5,0.4,0.9,1,0.9h3.9c0.5,0,0.9-0.4,0.9-0.9v-3.9c0-0.5-0.4-1-0.9-1
					h-3.2l-8.7-8.6c0-0.1,0-0.2,0-0.4v-6.6c0-0.9-0.7-1.6-1.6-1.6h-2.2v-16.9h5.7c1.6,0,2.9-1.3,2.9-2.9v-13.6
					c0-1.6-1.3-2.9-2.9-2.9h-13.6c-1.6,0-2.9,1.3-2.9,2.9v13.6C135,139,136.3,140.3,137.9,140.3z M144.7,194.9H143
					c-0.5,0-0.8,0.4-0.8,0.8v3.5c0,0.5,0.4,0.8,0.8,0.8h3.5c0.5,0,0.8-0.4,0.8-0.8v-3.5c0-0.5-0.4-0.8-0.8-0.8H144.7z M137.9,59.8
					h5.7V42.9h-2.2c-0.9,0-1.6-0.7-1.6-1.6v-6.6c0-0.1,0-0.2,0-0.4l-8.6-8.6H128c-0.5,0-1-0.4-1-1v-3.8c0-0.5,0.4-1,1-1h3.9
					c0.5,0,0.9,0.4,0.9,1v3.9c0,0.1,0,0.2-0.1,0.3l8.1,8.1c0.2-0.1,0.4-0.1,0.6-0.1h6.6c0.2,0,0.4,0,0.6,0.1l8-8.1
					c0-0.1-0.1-0.2-0.1-0.3v-3.9c0-0.5,0.4-1,1-1h3.9c0.5,0,0.9,0.4,0.9,1v3.9c0,0.5-0.4,0.9-0.9,0.9h-3.2l-8.6,8.6
					c0,0.1,0,0.2,0,0.4v6.6c0,0.9-0.7,1.6-1.6,1.6h-2.2v16.9h5.7c1.6,0,2.9,1.3,2.9,2.9v13.6c0,1.6-1.3,2.9-2.9,2.9h-13.6
					c-1.6,0-2.9-1.3-2.9-2.9V62.7C135,61.1,136.3,59.8,137.9,59.8z M144.7,5.2H143c-0.5,0-0.8-0.4-0.8-0.8V0.9
					c0-0.5,0.4-0.8,0.8-0.8h3.5c0.5,0,0.8,0.4,0.8,0.8v3.5c0,0.5-0.4,0.8-0.8,0.8H144.7z M144.7,18.7c-2.3,0-4.1,1.8-4.1,4.1
					s1.8,4.1,4.1,4.1s4.1-1.8,4.1-4.1C148.8,20.5,147,18.7,144.7,18.7z M144.7,181.4c-2.3,0-4.1-1.8-4.1-4.1c0-2.3,1.8-4.1,4.1-4.1
					s4.1,1.8,4.1,4.1S147,181.4,144.7,181.4z"/>
			</g>
		</g>
	</g>
	<g>
		<g>
			<defs>
				<rect id="SVGID_00000154424149537099620240000011870298894670024843_" x="44.7" y="82.4" width="200" height="36"/>
			</defs>
			<clipPath id="SVGID_00000049217341039657130130000010908287399513095815_">
				<use xlink:href="#SVGID_00000154424149537099620240000011870298894670024843_"  style="overflow:visible;"/>
			</clipPath>
			<g style="clip-path:url(#SVGID_00000049217341039657130130000010908287399513095815_);">
				<path class="st2" d="M104.5,93.2v5.7H87.6v-2.2c0-0.9-0.7-1.6-1.6-1.6h-6.6c-0.1,0-0.2,0-0.4,0l-8.6-8.6v-3.2
					c0-0.5-0.4-0.9-0.9-0.9h-3.8c-0.5,0-0.9,0.4-0.9,0.9v3.9c0,0.5,0.4,1,0.9,1h3.9c0.1,0,0.2,0,0.3-0.1l8.1,8.1
					c-0.1,0.2-0.1,0.4-0.1,0.6v6.6c0,0.2,0,0.4,0.1,0.6l-8.1,8c-0.1,0-0.2-0.1-0.3-0.1h-3.9c-0.5,0-0.9,0.4-0.9,0.9v3.9
					c0,0.5,0.4,1,0.9,1h3.9c0.5,0,1-0.4,1-1v-3.2l8.6-8.6c0.1,0,0.2,0,0.4,0h6.6c0.9,0,1.6-0.7,1.6-1.6v-2.2h16.9v5.7
					c0,1.6,1.3,2.9,2.9,2.9h13.6c1.6,0,2.9-1.3,2.9-2.9V93.2c0-1.6-1.3-2.9-2.9-2.9h-13.6C105.8,90.3,104.5,91.6,104.5,93.2z
					 M49.9,100.1v-1.7c0-0.5-0.4-0.8-0.8-0.8h-3.5c-0.5,0-0.8,0.4-0.8,0.8v3.5c0,0.5,0.4,0.8,0.8,0.8h3.5c0.5,0,0.8-0.4,0.8-0.8
					V100.1z M184.9,93.2v5.7h16.9v-2.2c0-0.9,0.7-1.6,1.6-1.6h6.6c0.1,0,0.2,0,0.4,0l8.6-8.6v-3.2c0-0.5,0.4-0.9,0.9-0.9h3.9
					c0.5,0,1,0.4,1,0.9v3.9c0,0.5-0.4,1-1,1h-3.9c-0.1,0-0.2,0-0.3-0.1l-8.1,8.1c0.1,0.2,0.1,0.4,0.1,0.6v6.6c0,0.2,0,0.4-0.1,0.6
					l8.1,8.1c0.1,0,0.2-0.1,0.3-0.1h3.9c0.5,0,1,0.4,1,0.9v3.9c0,0.5-0.4,1-1,1h-3.9c-0.5,0-0.9-0.4-0.9-1v-3.2l-8.6-8.7
					c-0.1,0-0.2,0-0.4,0h-6.6c-0.9,0-1.6-0.7-1.6-1.6v-2.2h-16.9v5.7c0,1.6-1.3,2.9-2.9,2.9h-13.6c-1.6,0-2.9-1.3-2.9-2.9V93.2
					c0-1.6,1.3-2.9,2.9-2.9H182C183.6,90.3,184.9,91.6,184.9,93.2z M239.5,100.1v-1.7c0-0.5,0.4-0.8,0.8-0.8h3.5
					c0.5,0,0.8,0.4,0.8,0.8v3.5c0,0.5-0.4,0.8-0.8,0.8h-3.5c-0.5,0-0.8-0.4-0.8-0.8V100.1z M226.1,100.1c0-2.3-1.8-4.1-4.1-4.1
					s-4.1,1.8-4.1,4.1s1.8,4.1,4.1,4.1S226.1,102.3,226.1,100.1z M63.3,100.1c0-2.3,1.8-4.1,4.1-4.1s4.1,1.8,4.1,4.1
					s-1.8,4.1-4.1,4.1C65.1,104.2,63.3,102.3,63.3,100.1z"/>
			</g>
		</g>
	</g>
	<path class="st2" d="M153.5,113.1H136c-2.4,0-4.3-1.9-4.3-4.3V91.3c0-2.4,1.9-4.3,4.3-4.3h17.5c2.4,0,4.3,1.9,4.3,4.3v17.5
		C157.8,111.2,155.9,113.1,153.5,113.1z"/>
</g>
<path class="st7" d="M49.3,83.1C53.8,88,56,94,56,101.1s-2.2,13.1-6.7,18s-10.2,7.4-17.1,7.4c-6.3,0-11.6-2-15.7-6v28.9H0V77.3h16.3
	v5.4h0.2c4.1-4.5,9.3-6.8,15.7-6.8C39.2,75.8,44.9,78.2,49.3,83.1z M35.3,109.2c2.2-2.1,3.2-4.8,3.2-8.1s-1-6-3.1-8.1
	s-4.8-3.1-8.1-3.1c-3.2,0-5.9,1.1-8,3.2c-2.1,2.1-3.1,4.8-3.1,8c0,3.3,1.1,6,3.2,8.1c2.2,2.1,4.8,3.2,7.9,3.2
	C30.5,112.4,33.1,111.3,35.3,109.2z"/>
<path class="st7" d="M55.5,125V44.7H72V125H55.5z"/>
<path class="st7" d="M78.2,119.1c-4.5-4.9-6.7-10.9-6.7-18s2.2-13.1,6.7-18s10.2-7.4,17.1-7.4c6.3,0,11.6,2,15.7,6v-4.6h16.5V125
	h-16.3v-5.4H111c-4.1,4.5-9.3,6.8-15.7,6.8C88.3,126.4,82.6,124,78.2,119.1z M92.2,93c-2.1,2.1-3.2,4.8-3.2,8.1s1,6,3.1,8.1
	s4.8,3.1,8.1,3.1c3.2,0,5.9-1.1,8-3.2c2.1-2.1,3.1-4.8,3.1-8c0-3.3-1.1-6-3.2-8.1c-2.1-2.1-4.8-3.2-7.9-3.2
	C97,89.9,94.4,90.9,92.2,93z"/>
<path class="st7" d="M130.3,125V77.1h16.5v5h0.2c4.3-4.3,8.9-6.4,13.7-6.4c2.4,0,4.7,0.3,7.1,0.9c2.3,0.6,4.6,1.6,6.7,2.9
	c2.2,1.3,3.9,3.2,5.2,5.6c1.3,2.4,2,5.2,2,8.4V125h-16.5V97.9c0-2.5-0.8-4.7-2.4-6.5c-1.6-1.9-3.7-2.8-6.2-2.8s-4.7,1-6.8,2.9
	c-2,1.9-3,4.1-3,6.4V125L130.3,125L130.3,125z"/>
<path class="st7" d="M227.8,48v15.4h-26.5v15.3h25.4v15.4h-25.4v15.5h26.5V125h-44V48H227.8z"/>
<path class="st7" d="M224.7,63.4V48h54.1v15.4h-18.3V125H243V63.4L224.7,63.4L224.7,63.4z"/>
<path class="st7" d="M137.9,166.8c0.5,1.2,1.2,2.3,2,3.2c0.9,0.9,1.8,1.7,2.9,2.3c2.1,1.2,4.2,1.9,6.4,2.4s4.3,0.7,6.4,0.8
	c2.1,0.1,4.2,0,6.3-0.1c4.2-0.3,8.2-0.8,12.3-1.6c2-0.4,4-0.8,6-1.3s4-1,5.9-1.6c3.1-0.9,6.1-1.9,9.1-2.9c1.9-0.7,3.9-1.4,5.8-2.1
	c2.7-1,5.4-2.1,8.1-3.2c4.5-1.8,8.9-3.7,13.3-5.7c1.8-0.8,3.6-1.6,5.4-2.4c1.2-0.5,2.4-1.1,3.6-1.6c7.3-3.3,14.7-6.7,21.9-10.2
	c4.9-2.3,9.7-4.7,14.6-7.1c0.9-0.4,2.3-1.2,3.3-1.7c0.6-0.3,0.8-1.2,0.2-1.7l-0.1-0.1c-0.9-0.5-1.9-0.5-2.8,0
	c-0.5,0.3-1.1,0.6-1.4,0.8c-4.8,2.8-9.7,5.5-14.6,8c-7.1,3.7-14.4,7.1-21.8,10.3c-0.5,0.2-1,0.4-1.6,0.7c-0.3,0.1-0.5,0.2-0.8,0.3
	c-0.1,0-0.2,0.1-0.4,0.1c-0.2,0.1-0.4,0.1-0.5,0.2c-0.2,0.1-0.3,0.1-0.5,0.2c-0.1,0.1-0.3,0.1-0.4,0.2c-0.3,0.1-0.6,0.3-1,0.4l0,0
	c-0.5,0.2-0.9,0.4-1.4,0.5c-0.5,0.2-0.9,0.3-1.4,0.5s-0.9,0.3-1.4,0.5l0,0c-4.4,1.8-8.8,3.2-13.3,4.7c-3.2,1-6.3,1.9-9.5,2.9l0,0
	c-2,0.6-4,1.2-6,1.7l0,0l0,0c-2.5,0.8-5,1.3-7.6,2c-1,0.2-1.9,0.5-2.9,0.7s-1.9,0.4-2.9,0.7c-1.9,0.4-3.9,0.8-5.8,1.2
	c-3.9,0.7-7.8,1.3-11.6,1.6c-1.9,0.1-3.9,0.2-5.8,0.2s-3.8-0.2-5.6-0.5c-1.8-0.3-3.5-0.9-4.9-1.7c-1.4-0.8-2.5-1.9-3.1-3.2
	c-0.6-1.3-0.8-3-0.6-4.7s0.8-3.5,1.5-5.3s1.6-3.5,2.6-5.2s2-3.3,3.2-5c2.3-3.2,4.7-6.4,7.3-9.4c2.6-3.1,5.3-6,8-9l-0.4-0.4
	c-3.2,2.5-6.2,5.2-9.1,8s-5.7,5.8-8.3,8.9c-2.6,3.2-5,6.6-6.8,10.4c-0.9,1.9-1.7,4-2.1,6.2c-0.2,1.1-0.3,2.3-0.2,3.5
	C137.1,164.4,137.4,165.6,137.9,166.8"/>
<path class="st7" d="M264.9,122.9l4.8,3l1.3,0.8l3.2,2c0.7,0.4,1.4,1,1.8,1.8c0.4,0.7,0.5,1.4,0.6,2.2c0.2,1.1,0.5,2.3,0.7,3.4l0,0
	l1.3,6.4c0.2,0.9,0.9,1.2,1.5,0.7c0.7-0.5,1.2-1.6,1.3-2.4l0.2-6.9l0,0l0.1-4.6l6.7-4.3l0.5-0.3l0,0l19.1-12.3l0.2,0.8l0,0l0,0h0.1
	l1.2,4.8l0,0l6.4,28.8c0.1,0.6,0.5,1,0.9,0.9l0,0c0.2-0.1,0.4-0.1,0.5-0.3l3-2.1c0.7-0.5,1.3-1.6,1.2-2.4l-0.2-8.1
	c0.2,0,0.4-0.2,0.5-0.3l1.3-0.9l0.4-0.2c0.7-0.5,1-1.3,0.5-2l-0.4-0.5c-0.2-0.2-0.4-0.4-0.6-0.5c-0.5-0.3-1.2-0.3-1.7,0l-0.3,0.2
	l-0.2-7c0.2,0,0.5,0,0.7-0.2l0.7-0.5l0.9-0.7c0.7-0.5,0.9-1.5,0.4-2.2l-0.4-0.5c-0.3-0.5-0.9-0.8-1.5-0.8c-0.3,0-0.6,0.1-0.8,0.2
	l-0.3,0.2l-0.2-7.9v-0.4l-0.2-5.6v-0.8l9.6-6h0.1c2.2-1.4,5.7-5.3,6.8-8.2c0.4-1,0.4-1.8,0.1-2.4c-0.3-0.6-1-0.8-2-0.9
	c-2.9-0.2-7.9,1.6-10.1,3c0,0-3.4,2.6-8.3,6.3c-0.2,0.1-0.3,0.2-0.5,0.4s-0.5,0.4-0.8,0.6l-0.5-0.2l-0.3-0.1l-4.4-1.8l-8.4-3.4
	l0.3-0.2c0.7-0.5,0.9-1.4,0.4-2.1l-0.4-0.5c-0.5-0.7-1.3-0.7-2-0.2l-1.6,1.1c-0.2,0.1-0.4,0.2-0.5,0.4l-6.9-3.1l0.3-0.2
	c0.7-0.5,0.9-1.4,0.5-2.1l-0.4-0.5c-0.5-0.7-1.5-0.9-2.2-0.4l-1.7,1.2c-0.2,0.1-0.3,0.3-0.4,0.5l-7.5-3c-0.8-0.3-2.1-0.2-2.7,0.2
	l-3,2.1c-0.7,0.5-0.6,1.3,0.1,1.8l23.8,15.4l4.8,3.1l1.1,0.7c-0.4,0.3-0.7,0.5-1.1,0.8c-10,7.5-20.3,15.3-23.9,18l-4.2-1.4l-4.7-1.6
	l-1.9-0.7c-0.8-0.3-2.1-0.1-2.7,0.3C264.1,121.7,264.2,122.5,264.9,122.9"/>
</svg>
