<?xml version="1.0" encoding="utf-8"?>
<!-- Generator: Adobe Illustrator 25.4.1, SVG Export Plug-In . SVG Version: 6.00 Build 0)  -->
<svg version="1.1" id="Layer_1" xmlns="http://www.w3.org/2000/svg" xmlns:xlink="http://www.w3.org/1999/xlink" x="0px" y="0px"
	 viewBox="0 0 500 500" style="enable-background:new 0 0 500 500;" xml:space="preserve">
<style type="text/css">
	.st0{fill:#D76F30;}
	.st1{opacity:0.18;}
	.st2{fill-rule:evenodd;clip-rule:evenodd;fill:#172D13;}
	.st3{fill:#172D13;}
	.st4{clip-path:url(#SVGID_00000090976739273339715910000014363161122084494777_);}
	.st5{clip-path:url(#SVGID_00000083073095051453411110000015725943967826568083_);}
	.st6{clip-path:url(#SVGID_00000017485655665113831000000010347180224734279094_);}
	.st7{fill:#FFFFFF;}
</style>
<rect class="st0" width="500" height="500"/>
<g class="st1">
	<path class="st2" d="M208.4,223.4v8.3c0,1.1-0.9,2-2,2H198c-1.1,0-2-0.9-2-2v-8.3c0-1.1,0.9-2,2-2h8.3
		C207.4,221.3,208.4,222.2,208.4,223.4z"/>
	<path class="st2" d="M206.1,193.8v5.3c0,0.7-0.6,1.3-1.3,1.3h-5.3c-0.7,0-1.3-0.6-1.3-1.3v-5.3c0-0.7,0.6-1.3,1.3-1.3h5.3
		C205.5,192.5,206.1,193.1,206.1,193.8z"/>
	<path class="st2" d="M190.5,181v3.1c0,0.4-0.3,0.8-0.7,0.8h-3.1c-0.4,0-0.8-0.3-0.8-0.8V181c0-0.4,0.3-0.8,0.8-0.8h3.1
		C190.1,180.3,190.5,180.6,190.5,181z"/>
	<path class="st2" d="M221.9,177.2v5.1c0,0.7-0.6,1.3-1.3,1.3h-1.3v21.8h3.5c1.3,0,2.3,1.1,2.3,2.3v9.5c0,1.3-1.1,2.3-2.3,2.3h-9.5
		c-1.3,0-2.3-1.1-2.3-2.3v-3.5h-21.8v1.3c0,0.7-0.6,1.3-1.3,1.3h-5.1c-0.7,0-1.3-0.6-1.3-1.3v-5.1c0-0.7,0.6-1.3,1.3-1.3h5.1
		c0.7,0,1.3,0.6,1.3,1.3v1.3H211v-3.5c0-1.3,1.1-2.3,2.3-2.3h3.5v-21.8h-1.3c-0.7,0-1.3-0.6-1.3-1.3v-5.1c0-0.7,0.6-1.3,1.3-1.3h5.1
		C221.3,175.9,221.9,176.5,221.9,177.2z"/>
	<path class="st2" d="M258.4,295.1v-8.3c0-1.1,0.9-2,2-2h8.3c1.1,0,2,0.9,2,2v8.3c0,1.1-0.9,2-2,2h-8.3
		C259.3,297.2,258.4,296.3,258.4,295.1z"/>
	<path class="st2" d="M291.7,262.6v-8.3c0-1.1,0.9-2,2-2h8.3c1.1,0,2,0.9,2,2v8.3c0,1.1-0.9,2-2,2h-8.3
		C292.6,264.6,291.7,263.7,291.7,262.6z"/>
	<path class="st2" d="M293.9,292.1v-5.3c0-0.7,0.6-1.3,1.3-1.3h5.3c0.7,0,1.3,0.6,1.3,1.3v5.3c0,0.7-0.6,1.3-1.3,1.3h-5.3
		C294.5,293.4,293.9,292.8,293.9,292.1z"/>
	<path class="st2" d="M309.6,304.9v-3.1c0-0.4,0.3-0.7,0.7-0.7h3.1c0.4,0,0.7,0.3,0.7,0.7v3.1c0,0.4-0.3,0.7-0.7,0.7h-3.1
		C309.9,305.7,309.6,305.3,309.6,304.9z"/>
	<path class="st2" d="M278.1,308.7v-5.1c0-0.7,0.6-1.3,1.3-1.3h1.3v-21.8h-3.5c-1.3,0-2.3-1.1-2.3-2.3v-9.5c0-1.3,1.1-2.3,2.3-2.3
		h9.5c1.3,0,2.3,1.1,2.3,2.3v3.5h21.8v-1.3c0-0.7,0.6-1.3,1.3-1.3h5.1c0.7,0,1.3,0.6,1.3,1.3v5.1c0,0.7-0.6,1.3-1.3,1.3h-5.1
		c-0.7,0-1.3-0.6-1.3-1.3v-1.3H289v3.5c0,1.3-1.1,2.3-2.3,2.3h-3.5v21.8h1.3c0.7,0,1.3,0.6,1.3,1.3v5.1c0,0.7-0.6,1.3-1.3,1.3h-5.1
		C278.7,310,278.1,309.4,278.1,308.7z"/>
	<path class="st2" d="M230.4,284.6h8.3c1.1,0,2,0.9,2,2v8.3c0,1.1-0.9,2-2,2h-8.3c-1.1,0-2-0.9-2-2v-8.3
		C228.4,285.5,229.3,284.6,230.4,284.6z"/>
	<path class="st2" d="M200.9,286.8h5.3c0.7,0,1.3,0.6,1.3,1.3v5.3c0,0.7-0.6,1.3-1.3,1.3h-5.3c-0.7,0-1.3-0.6-1.3-1.3v-5.3
		C199.5,287.4,200.1,286.8,200.9,286.8z"/>
	<path class="st2" d="M188.1,302.5h3.1c0.4,0,0.7,0.3,0.7,0.7v3.1c0,0.4-0.3,0.7-0.7,0.7h-3.1c-0.4,0-0.7-0.3-0.7-0.7v-3.1
		C187.3,302.8,187.7,302.5,188.1,302.5z"/>
	<path class="st2" d="M184.3,271h5.1c0.7,0,1.3,0.6,1.3,1.3v1.3h21.8v-3.5c0-1.3,1.1-2.3,2.3-2.3h9.5c1.3,0,2.3,1.1,2.3,2.3v9.5
		c0,1.3-1.1,2.3-2.3,2.3h-3.5v21.8h1.3c0.7,0,1.3,0.6,1.3,1.3v5.1c0,0.7-0.6,1.3-1.3,1.3H217c-0.7,0-1.3-0.6-1.3-1.3V305
		c0-0.7,0.6-1.3,1.3-1.3h1.3v-21.8h-3.5c-1.3,0-2.3-1.1-2.3-2.3v-3.5h-21.8v1.3c0,0.7-0.6,1.3-1.3,1.3h-5.1c-0.7,0-1.3-0.6-1.3-1.3
		v-5.1C183,271.6,183.5,271,184.3,271z"/>
	<path class="st2" d="M302.2,234.5h-8.3c-1.1,0-2-0.9-2-2v-8.3c0-1.1,0.9-2,2-2h8.3c1.1,0,2,0.9,2,2v8.3
		C304.3,233.6,303.4,234.5,302.2,234.5z"/>
	<path class="st2" d="M269.6,201.3h-8.3c-1.1,0-2-0.9-2-2V191c0-1.1,0.9-2,2-2h8.3c1.1,0,2,0.9,2,2v8.3
		C271.6,200.4,270.7,201.3,269.6,201.3z"/>
	<path class="st2" d="M299.1,199.1h-5.3c-0.7,0-1.3-0.6-1.3-1.3v-5.3c0-0.7,0.6-1.3,1.3-1.3h5.3c0.7,0,1.3,0.6,1.3,1.3v5.3
		C300.5,198.5,299.9,199.1,299.1,199.1z"/>
	<path class="st2" d="M312,183.4h-3.1c-0.4,0-0.8-0.3-0.8-0.7v-3.1c0-0.4,0.3-0.7,0.8-0.7h3.1c0.4,0,0.8,0.3,0.8,0.7v3.1
		C312.7,183.1,312.4,183.4,312,183.4z"/>
	<path class="st2" d="M315.8,214.8h-5.1c-0.7,0-1.3-0.6-1.3-1.3v-1.3h-21.8v3.5c0,1.3-1.1,2.3-2.3,2.3h-9.5c-1.3,0-2.3-1.1-2.3-2.3
		v-9.5c0-1.3,1.1-2.3,2.3-2.3h3.5v-21.8H278c-0.7,0-1.3-0.6-1.3-1.3v-5.1c0-0.7,0.6-1.3,1.3-1.3h5.1c0.7,0,1.3,0.6,1.3,1.3v5.1
		c0,0.7-0.6,1.3-1.3,1.3h-1.3V204h3.5c1.3,0,2.3,1.1,2.3,2.3v3.5h21.8v-1.3c0-0.7,0.6-1.3,1.3-1.3h5.1c0.7,0,1.3,0.6,1.3,1.3v5.1
		C317,214.3,316.5,214.8,315.8,214.8z"/>
	<path class="st2" d="M197.8,251.3h8.3c1.1,0,2,0.9,2,2v8.3c0,1.1-0.9,2-2,2h-8.3c-1.1,0-2-0.9-2-2v-8.3
		C195.8,252.3,196.7,251.3,197.8,251.3z"/>
	<path class="st2" d="M241.6,190.7v8.3c0,1.1-0.9,2-2,2h-8.3c-1.1,0-2-0.9-2-2v-8.3c0-1.1,0.9-2,2-2h8.3
		C240.7,188.7,241.6,189.6,241.6,190.7z"/>
	<path class="st3" d="M254.1,320.2c0,0.5-0.1,1.1-0.3,1.6c-0.2,0.5-0.5,0.9-0.9,1.3c-0.4,0.4-0.8,0.7-1.3,0.9
		c-0.5,0.2-1,0.3-1.6,0.3c-0.5,0-1.1-0.1-1.6-0.3c-0.5-0.2-0.9-0.5-1.3-0.9c-0.4-0.4-0.7-0.8-0.9-1.3c-0.2-0.5-0.3-1-0.3-1.6
		c0-0.5,0.1-1.1,0.3-1.6c0.2-0.5,0.5-0.9,0.9-1.3c0.4-0.4,0.8-0.7,1.3-0.9c0.5-0.2,1-0.3,1.6-0.3c0.5,0,1.1,0.1,1.6,0.3
		c0.5,0.2,0.9,0.5,1.3,0.9c0.4,0.4,0.7,0.8,0.9,1.3C254,319.2,254.1,319.7,254.1,320.2z"/>
	<g>
		<defs>
			<rect id="SVGID_1_" x="246.7" y="337.3" width="6.7" height="5.6"/>
		</defs>
		<clipPath id="SVGID_00000121978307700904621000000007028099832519948421_">
			<use xlink:href="#SVGID_1_"  style="overflow:visible;"/>
		</clipPath>
		<g style="clip-path:url(#SVGID_00000121978307700904621000000007028099832519948421_);">
			<path class="st2" d="M250,337.8h-1.7c-0.5,0-0.8,0.4-0.8,0.8v3.5c0,0.5,0.4,0.8,0.8,0.8h3.5c0.5,0,0.8-0.4,0.8-0.8v-3.5
				c0-0.5-0.4-0.8-0.8-0.8H250z"/>
		</g>
	</g>
	<g>
		<defs>
			<rect id="SVGID_00000142140419750460821600000008224347545897069444_" x="232" y="142.9" width="36" height="200"/>
		</defs>
		<clipPath id="SVGID_00000157284944106382213850000016819127345126383242_">
			<use xlink:href="#SVGID_00000142140419750460821600000008224347545897069444_"  style="overflow:visible;"/>
		</clipPath>
		<g style="clip-path:url(#SVGID_00000157284944106382213850000016819127345126383242_);">
			<path class="st2" d="M243.2,283.2h5.7v16.9h-2.2c-0.9,0-1.6,0.7-1.6,1.6v6.6c0,0.1,0,0.2,0,0.4l-8.6,8.6h-3.2c-0.5,0-1,0.4-1,1
				v3.9c0,0.5,0.4,0.9,1,0.9h3.9c0.5,0,0.9-0.4,0.9-0.9v-3.9c0-0.1,0-0.2-0.1-0.3l8.1-8.1c0.2,0.1,0.4,0.1,0.6,0.1h6.6
				c0.2,0,0.4,0,0.6-0.1l8.1,8.1c0,0.1-0.1,0.2-0.1,0.3v3.9c0,0.5,0.4,0.9,1,0.9h3.9c0.5,0,0.9-0.4,0.9-0.9v-3.9c0-0.5-0.4-1-0.9-1
				h-3.2l-8.7-8.6c0-0.1,0-0.2,0-0.4v-6.6c0-0.9-0.7-1.6-1.6-1.6h-2.2v-16.9h5.7c1.6,0,2.9-1.3,2.9-2.9v-13.6c0-1.6-1.3-2.9-2.9-2.9
				h-13.6c-1.6,0-2.9,1.3-2.9,2.9v13.6C240.3,281.9,241.6,283.2,243.2,283.2z M250,337.8h-1.7c-0.5,0-0.8,0.4-0.8,0.8v3.5
				c0,0.5,0.4,0.8,0.8,0.8h3.5c0.5,0,0.8-0.4,0.8-0.8v-3.5c0-0.5-0.4-0.8-0.8-0.8H250z M243.2,202.7h5.7v-16.9h-2.2
				c-0.9,0-1.6-0.7-1.6-1.6v-6.6c0-0.1,0-0.2,0-0.4l-8.6-8.6h-3.2c-0.5,0-1-0.4-1-1v-3.8c0-0.5,0.4-1,1-1h3.9c0.5,0,0.9,0.4,0.9,1
				v3.9c0,0.1,0,0.2-0.1,0.3l8.1,8.1c0.2-0.1,0.4-0.1,0.6-0.1h6.6c0.2,0,0.4,0,0.6,0.1l8-8.1c0-0.1-0.1-0.2-0.1-0.3v-3.9
				c0-0.5,0.4-1,1-1h3.9c0.5,0,0.9,0.4,0.9,1v3.9c0,0.5-0.4,0.9-0.9,0.9h-3.2l-8.6,8.6c0,0.1,0,0.2,0,0.4v6.6c0,0.9-0.7,1.6-1.6,1.6
				h-2.2v16.9h5.7c1.6,0,2.9,1.3,2.9,2.9v13.6c0,1.6-1.3,2.9-2.9,2.9h-13.6c-1.6,0-2.9-1.3-2.9-2.9v-13.6
				C240.3,204,241.6,202.7,243.2,202.7z M250,148.1h-1.7c-0.5,0-0.8-0.4-0.8-0.8v-3.5c0-0.5,0.4-0.8,0.8-0.8h3.5
				c0.5,0,0.8,0.4,0.8,0.8v3.5c0,0.5-0.4,0.8-0.8,0.8H250z M250,161.6c-2.3,0-4.1,1.8-4.1,4.1c0,2.3,1.8,4.1,4.1,4.1
				c2.3,0,4.1-1.8,4.1-4.1C254.1,163.4,252.3,161.6,250,161.6z M250,324.3c-2.3,0-4.1-1.8-4.1-4.1c0-2.3,1.8-4.1,4.1-4.1
				c2.3,0,4.1,1.8,4.1,4.1C254.1,322.5,252.3,324.3,250,324.3z"/>
		</g>
	</g>
	<g>
		<defs>
			<rect id="SVGID_00000002360544429837843030000008598103338310775943_" x="150" y="225.3" width="200" height="36"/>
		</defs>
		<clipPath id="SVGID_00000001636649838139249860000008498679842295222407_">
			<use xlink:href="#SVGID_00000002360544429837843030000008598103338310775943_"  style="overflow:visible;"/>
		</clipPath>
		<g style="clip-path:url(#SVGID_00000001636649838139249860000008498679842295222407_);">
			<path class="st2" d="M209.8,236.1v5.7h-16.9v-2.2c0-0.9-0.7-1.6-1.6-1.6h-6.6c-0.1,0-0.2,0-0.4,0l-8.6-8.6v-3.2
				c0-0.5-0.4-0.9-0.9-0.9h-3.8c-0.5,0-0.9,0.4-0.9,0.9v3.9c0,0.5,0.4,1,0.9,1h3.9c0.1,0,0.2,0,0.3-0.1l8.1,8.1
				c-0.1,0.2-0.1,0.4-0.1,0.6v6.6c0,0.2,0,0.4,0.1,0.6l-8.1,8c-0.1,0-0.2-0.1-0.3-0.1h-3.9c-0.5,0-0.9,0.4-0.9,0.9v3.9
				c0,0.5,0.4,1,0.9,1h3.9c0.5,0,1-0.4,1-1v-3.2l8.6-8.6c0.1,0,0.2,0,0.4,0h6.6c0.9,0,1.6-0.7,1.6-1.6v-2.2h16.9v5.7
				c0,1.6,1.3,2.9,2.9,2.9h13.6c1.6,0,2.9-1.3,2.9-2.9v-13.6c0-1.6-1.3-2.9-2.9-2.9h-13.6C211.1,233.2,209.8,234.5,209.8,236.1z
				 M155.2,243v-1.7c0-0.5-0.4-0.8-0.8-0.8h-3.5c-0.5,0-0.8,0.4-0.8,0.8v3.5c0,0.5,0.4,0.8,0.8,0.8h3.5c0.5,0,0.8-0.4,0.8-0.8V243z
				 M290.2,236.1v5.7h16.9v-2.2c0-0.9,0.7-1.6,1.6-1.6h6.6c0.1,0,0.2,0,0.4,0l8.6-8.6v-3.2c0-0.5,0.4-0.9,0.9-0.9h3.9
				c0.5,0,1,0.4,1,0.9v3.9c0,0.5-0.4,1-1,1h-3.9c-0.1,0-0.2,0-0.3-0.1l-8.1,8.1c0.1,0.2,0.1,0.4,0.1,0.6v6.6c0,0.2,0,0.4-0.1,0.6
				l8.1,8.1c0.1,0,0.2-0.1,0.3-0.1h3.9c0.5,0,1,0.4,1,0.9v3.9c0,0.5-0.4,1-1,1h-3.9c-0.5,0-0.9-0.4-0.9-1v-3.2l-8.6-8.7
				c-0.1,0-0.2,0-0.4,0h-6.6c-0.9,0-1.6-0.7-1.6-1.6V244h-16.9v5.7c0,1.6-1.3,2.9-2.9,2.9h-13.6c-1.6,0-2.9-1.3-2.9-2.9v-13.6
				c0-1.6,1.3-2.9,2.9-2.9h13.6C288.9,233.2,290.2,234.5,290.2,236.1z M344.8,243v-1.7c0-0.5,0.4-0.8,0.8-0.8h3.5
				c0.5,0,0.8,0.4,0.8,0.8v3.5c0,0.5-0.4,0.8-0.8,0.8h-3.5c-0.5,0-0.8-0.4-0.8-0.8V243z M331.4,243c0-2.3-1.8-4.1-4.1-4.1
				s-4.1,1.8-4.1,4.1c0,2.3,1.8,4.1,4.1,4.1C329.6,247.1,331.4,245.2,331.4,243z M168.6,243c0-2.3,1.8-4.1,4.1-4.1s4.1,1.8,4.1,4.1
				c0,2.3-1.8,4.1-4.1,4.1C170.4,247.1,168.6,245.2,168.6,243z"/>
		</g>
	</g>
	<path class="st2" d="M258.8,256h-17.5c-2.4,0-4.3-1.9-4.3-4.3v-17.5c0-2.4,1.9-4.3,4.3-4.3h17.5c2.4,0,4.3,1.9,4.3,4.3v17.5
		C263.1,254.1,261.2,256,258.8,256z"/>
</g>
<path class="st7" d="M154.6,226c4.5,4.9,6.7,10.9,6.7,18c0,7.1-2.2,13.1-6.7,18c-4.5,4.9-10.2,7.4-17.1,7.4c-6.3,0-11.6-2-15.7-6
	v28.9h-16.5v-72.1h16.3v5.4h0.2c4.1-4.5,9.3-6.8,15.7-6.8C144.5,218.7,150.2,221.1,154.6,226z M140.6,252.1c2.2-2.1,3.2-4.8,3.2-8.1
	c0-3.3-1-6-3.1-8.1c-2.1-2.1-4.8-3.1-8.1-3.1c-3.2,0-5.9,1.1-8,3.2c-2.1,2.1-3.1,4.8-3.1,8c0,3.3,1.1,6,3.2,8.1
	c2.2,2.1,4.8,3.2,7.9,3.2C135.8,255.3,138.4,254.2,140.6,252.1z"/>
<path class="st7" d="M160.8,267.9v-80.3h16.5v80.3H160.8z"/>
<path class="st7" d="M183.5,262c-4.5-4.9-6.7-10.9-6.7-18c0-7.1,2.2-13.1,6.7-18c4.5-4.9,10.2-7.4,17.1-7.4c6.3,0,11.6,2,15.7,6
	v-4.6h16.5v47.9h-16.3v-5.4h-0.2c-4.1,4.5-9.3,6.8-15.7,6.8C193.6,269.3,187.9,266.9,183.5,262z M197.5,235.9
	c-2.1,2.1-3.2,4.8-3.2,8.1c0,3.3,1,6,3.1,8.1c2.1,2.1,4.8,3.1,8.1,3.1c3.2,0,5.9-1.1,8-3.2c2.1-2.1,3.1-4.8,3.1-8
	c0-3.3-1.1-6-3.2-8.1c-2.1-2.1-4.8-3.2-7.9-3.2C202.3,232.8,199.7,233.8,197.5,235.9z"/>
<path class="st7" d="M235.6,267.9v-47.9h16.5v5h0.2c4.3-4.3,8.9-6.4,13.7-6.4c2.4,0,4.7,0.3,7.1,0.9c2.3,0.6,4.6,1.6,6.7,2.9
	c2.2,1.3,3.9,3.2,5.2,5.6c1.3,2.4,2,5.2,2,8.4v31.5h-16.5v-27.1c0-2.5-0.8-4.7-2.4-6.5c-1.6-1.9-3.7-2.8-6.2-2.8
	c-2.5,0-4.7,1-6.8,2.9c-2,1.9-3,4.1-3,6.4v27.1H235.6z"/>
<path class="st7" d="M333.1,190.9v15.4h-26.5v15.3H332V237h-25.4v15.5h26.5v15.4h-44v-77H333.1z"/>
<path class="st7" d="M330,206.3v-15.4h54.1v15.4h-18.3v61.6h-17.5v-61.6H330z"/>
<path class="st7" d="M243.2,309.7c0.5,1.2,1.2,2.3,2,3.2c0.9,0.9,1.8,1.7,2.9,2.3c2.1,1.2,4.2,1.9,6.4,2.4c2.2,0.5,4.3,0.7,6.4,0.8
	c2.1,0.1,4.2,0,6.3-0.1c4.2-0.3,8.2-0.8,12.3-1.6c2-0.4,4-0.8,6-1.3c2-0.5,4-1,5.9-1.6c3.1-0.9,6.1-1.9,9.1-2.9
	c1.9-0.7,3.9-1.4,5.8-2.1c2.7-1,5.4-2.1,8.1-3.2c4.5-1.8,8.9-3.7,13.3-5.7c1.8-0.8,3.6-1.6,5.4-2.4c1.2-0.5,2.4-1.1,3.6-1.6
	c7.3-3.3,14.7-6.7,21.9-10.2c4.9-2.3,9.7-4.7,14.6-7.1c0.9-0.4,2.3-1.2,3.3-1.7c0.6-0.3,0.8-1.2,0.2-1.7c0,0-0.1-0.1-0.1-0.1
	c-0.9-0.5-1.9-0.5-2.8,0c-0.5,0.3-1.1,0.6-1.4,0.8c-4.8,2.8-9.7,5.5-14.6,8c-7.1,3.7-14.4,7.1-21.8,10.3c-0.5,0.2-1,0.4-1.6,0.7
	c-0.3,0.1-0.5,0.2-0.8,0.3c-0.1,0-0.2,0.1-0.4,0.1c-0.2,0.1-0.4,0.1-0.5,0.2c-0.2,0.1-0.3,0.1-0.5,0.2c-0.1,0.1-0.3,0.1-0.4,0.2
	c-0.3,0.1-0.6,0.3-1,0.4c0,0,0,0,0,0c-0.5,0.2-0.9,0.4-1.4,0.5c-0.5,0.2-0.9,0.3-1.4,0.5c-0.5,0.2-0.9,0.3-1.4,0.5h0
	c-4.4,1.8-8.8,3.2-13.3,4.7c-3.2,1-6.3,1.9-9.5,2.9l0,0c-2,0.6-4,1.2-6,1.7c0,0,0,0,0,0l0,0c-2.5,0.8-5,1.3-7.6,2
	c-1,0.2-1.9,0.5-2.9,0.7s-1.9,0.4-2.9,0.7c-1.9,0.4-3.9,0.8-5.8,1.2c-3.9,0.7-7.8,1.3-11.6,1.6c-1.9,0.1-3.9,0.2-5.8,0.2
	c-1.9,0-3.8-0.2-5.6-0.5c-1.8-0.3-3.5-0.9-4.9-1.7c-1.4-0.8-2.5-1.9-3.1-3.2c-0.6-1.3-0.8-3-0.6-4.7c0.2-1.7,0.8-3.5,1.5-5.3
	c0.7-1.8,1.6-3.5,2.6-5.2c1-1.7,2-3.3,3.2-5c2.3-3.2,4.7-6.4,7.3-9.4c2.6-3.1,5.3-6,8-9l-0.4-0.4c-3.2,2.5-6.2,5.2-9.1,8
	c-2.9,2.8-5.7,5.8-8.3,8.9c-2.6,3.2-5,6.6-6.8,10.4c-0.9,1.9-1.7,4-2.1,6.2c-0.2,1.1-0.3,2.3-0.2,3.5
	C242.4,307.3,242.7,308.5,243.2,309.7"/>
<path class="st7" d="M370.2,265.8l4.8,3l1.3,0.8c0,0,3.2,2,3.2,2c0.7,0.4,1.4,1,1.8,1.8c0.4,0.7,0.5,1.4,0.6,2.2
	c0.2,1.1,0.5,2.3,0.7,3.4l0,0l1.3,6.4c0.2,0.9,0.9,1.2,1.5,0.7c0.7-0.5,1.2-1.6,1.3-2.4l0.2-6.9v0l0.1-4.6l6.7-4.3l0.5-0.3h0
	l19.1-12.3l0.2,0.8v0l0,0l0.1,0l1.2,4.8l0,0l6.4,28.8c0.1,0.6,0.5,1,0.9,0.9l0,0c0.2-0.1,0.4-0.1,0.5-0.3l3-2.1
	c0.7-0.5,1.3-1.6,1.2-2.4l-0.2-8.1c0.2,0,0.4-0.2,0.5-0.3l1.3-0.9l0.4-0.2c0.7-0.5,1-1.3,0.5-2l-0.4-0.5c-0.2-0.2-0.4-0.4-0.6-0.5
	c-0.5-0.3-1.2-0.3-1.7,0l-0.3,0.2l-0.2-7c0.2,0,0.5,0,0.7-0.2l0.7-0.5l0.9-0.7c0.7-0.5,0.9-1.5,0.4-2.2l-0.4-0.5
	c-0.3-0.5-0.9-0.8-1.5-0.8c-0.3,0-0.6,0.1-0.8,0.2l-0.3,0.2l-0.2-7.9l0-0.4l-0.2-5.6l0-0.8l9.6-6l0.1,0c2.2-1.4,5.7-5.3,6.8-8.2
	c0.4-1,0.4-1.8,0.1-2.4c-0.3-0.6-1-0.8-2-0.9c-2.9-0.2-7.9,1.6-10.1,3c0,0-3.4,2.6-8.3,6.3c-0.2,0.1-0.3,0.2-0.5,0.4
	c-0.2,0.2-0.5,0.4-0.8,0.6l-0.5-0.2l-0.3-0.1l-4.4-1.8l-8.4-3.4l0.3-0.2c0.7-0.5,0.9-1.4,0.4-2.1l-0.4-0.5c-0.5-0.7-1.3-0.7-2-0.2
	l-1.6,1.1c-0.2,0.1-0.4,0.2-0.5,0.4L396,230l0.3-0.2c0.7-0.5,0.9-1.4,0.5-2.1l-0.4-0.5c-0.5-0.7-1.5-0.9-2.2-0.4l-1.7,1.2
	c-0.2,0.1-0.3,0.3-0.4,0.5l-7.5-3c-0.8-0.3-2.1-0.2-2.7,0.2l-3,2.1c-0.7,0.5-0.6,1.3,0.1,1.8l23.8,15.4l4.8,3.1l1.1,0.7
	c-0.4,0.3-0.7,0.5-1.1,0.8c-10,7.5-20.3,15.3-23.9,18l-4.2-1.4l-4.7-1.6l-1.9-0.7c-0.8-0.3-2.1-0.1-2.7,0.3
	C369.4,264.6,369.5,265.4,370.2,265.8"/>
</svg>
