<?xml version="1.0" encoding="utf-8"?>
<!-- Generator: Adobe Illustrator 25.4.1, SVG Export Plug-In . SVG Version: 6.00 Build 0)  -->
<svg version="1.1" id="Layer_1" xmlns="http://www.w3.org/2000/svg" xmlns:xlink="http://www.w3.org/1999/xlink" x="0px" y="0px"
	 viewBox="0 0 80 77" style="enable-background:new 0 0 80 77;" xml:space="preserve">
<style type="text/css">
	.st0{fill:#FFFFFF;}
</style>
<path class="st0" d="M0.3,26.5l2.2,5.2l0.6,1.4l1.5,3.5c0.3,0.7,0.6,1.6,0.4,2.5c-0.1,0.8-0.4,1.4-0.8,2.2c-0.5,1-0.9,2.2-1.4,3.2
	l0,0l-2.6,6C-0.1,51.4,0.3,52,1.1,52C2,52,3,51.3,3.6,50.7l4.1-5.6l0,0l2.7-3.7l8,0.3l0.6,0l0,0l22.9,0.8l-0.3,0.8l0,0l0,0l0.1,0.1
	l-1.8,4.7l0,0L28.6,75.6c-0.3,0.6-0.2,1.1,0.2,1.3l0,0c0.2,0,0.6,0,0.6,0l3.7,0c0.9,0,2-0.6,2.4-1.3l4.5-6.8c0.2,0.1,0.4,0.1,0.6,0
	l1.6,0l0.4,0.1c0.9,0,1.6-0.5,1.6-1.4l0-0.6c0-0.3-0.1-0.6-0.2-0.8c-0.2-0.5-0.8-0.9-1.4-1l-0.4,0l3.9-5.9c0.2,0.1,0.4,0.3,0.7,0.2
	l0.9,0l1.1-0.1c0.9,0,1.6-0.7,1.6-1.6l0-0.6c0-0.6-0.3-1.2-0.8-1.5c-0.2-0.2-0.6-0.3-0.8-0.3l-0.4,0l4.4-6.6l0.2-0.3l3.1-4.7
	l0.5-0.7l11.4,0.6l0.1,0.1c2.6,0.1,7.8-1.1,10.3-2.9c0.9-0.6,1.4-1.3,1.5-1.9c0.1-0.7-0.4-1.2-1.1-1.9c-2.3-1.8-7.4-3.2-10.1-3.3
	c0,0-4.3,0.2-10.5,0.4c-0.2,0-0.4,0-0.6,0c-0.3,0-0.6,0-1,0l-0.3-0.5l-0.2-0.3l-2.6-4l-5-7.6l0.4,0c0.9,0,1.5-0.6,1.5-1.5l0-0.6
	c0-0.9-0.7-1.3-1.5-1.3l-2,0c-0.2,0-0.4-0.1-0.6,0l-3.9-6.5l0.4,0c0.9,0,1.5-0.6,1.6-1.4l0-0.6c0-0.9-0.7-1.6-1.6-1.6l-2.1,0
	c-0.2,0-0.4,0.1-0.6,0.2l-4.5-6.8c-0.5-0.7-1.6-1.4-2.3-1.4l-3.7,0c-0.9,0-1.2,0.7-1,1.5l10.8,26.4l2.2,5.3l0.5,1.2
	c-0.5,0-0.9,0-1.4,0c-12.6,0.4-25.6,0.9-30.1,1.1l-2.7-3.6l-3-4l-1.2-1.7c-0.5-0.7-1.7-1.3-2.4-1.3C0.3,25-0.1,25.7,0.3,26.5"/>
</svg>
