<?xml version="1.0" encoding="utf-8"?>
<!-- Generator: Adobe Illustrator 25.4.1, SVG Export Plug-In . SVG Version: 6.00 Build 0)  -->
<svg version="1.1" id="Layer_1" xmlns="http://www.w3.org/2000/svg" xmlns:xlink="http://www.w3.org/1999/xlink" x="0px" y="0px"
	 viewBox="0 0 230 220" style="enable-background:new 0 0 230 220;" xml:space="preserve">
<style type="text/css">
	.st0{fill:#FFB700;}
</style>
<path class="st0" d="M219.2,80.8c-2-5.2-7-8.7-12.7-8.8c0,0-54.9,0-54.9,0c-1.9,0-3.6-1.2-4.3-3l-19.7-55.3
	c-2.6-6.9-10.4-10.5-17.4-7.9c-3.7,1.4-6.7,4.3-8,8c0,0-19.7,55.2-19.7,55.2c1.5,6.1-56.7,1.8-59.1,3c-12.3-0.4-18.3,16.2-8.7,23.7
	c0,0,46.7,38.4,46.7,38.4c1.4,1.2,2,3.1,1.4,4.9c0,0-19.6,58.3-19.6,58.3c-4.4,11.9,10.7,22.9,20.8,15c2.8-0.5,51.2-41.3,53.5-35
	c0,0,48.2,35,48.2,35c10.1,7.9,25.3-3.1,20.8-15c0.3-3.1-24.2-62-18.2-63.2c0,0,46.8-38.5,46.8-38.5C219.6,92,221.1,86,219.2,80.8"
	/>
</svg>
